<?xml version="1.0" encoding="UTF-8" standalone="no"?>
<!DOCTYPE svg PUBLIC "-//W3C//DTD SVG 1.1//EN"
 "http://www.w3.org/Graphics/SVG/1.1/DTD/svg11.dtd">
<!-- Generated by graphviz version 2.30.1 (20170916.1124)
 -->
<!-- Title: %3 Pages: 1 -->
<svg width="98pt" height="188pt"
 viewBox="0.00 0.00 98.00 188.00" xmlns="http://www.w3.org/2000/svg" xmlns:xlink="http://www.w3.org/1999/xlink">
<g id="graph0" class="graph" transform="scale(1 1) rotate(0) translate(4 184)">
<title>%3</title>
<polygon fill="white" stroke="white" points="-4,5 -4,-184 95,-184 95,5 -4,5"/>
<!-- a -->
<g id="node1" class="node"><title>a</title>
<ellipse fill="#ff5966" stroke="none" cx="45" cy="-162" rx="18" ry="18"/>
<text text-anchor="middle" x="45" y="-158.3" font-family="sans" font-size="14.00" fill="#333333">a</text>
</g>
<!-- c -->
<g id="node3" class="node"><title>c</title>
<ellipse fill="#00b3fd" stroke="none" cx="18" cy="-90" rx="18" ry="18"/>
<text text-anchor="middle" x="18" y="-86.3" font-family="sans" font-size="14.00" fill="#333333">c</text>
</g>
<!-- a&#45;&gt;c -->
<g id="edge1" class="edge"><title>a&#45;&gt;c</title>
<path fill="none" stroke="#555555" d="M38.7378,-144.765C35.0915,-135.311 30.4451,-123.265 26.475,-112.972"/>
<polygon fill="#555555" stroke="#555555" points="28.3468,-111.99 24.2282,-107.147 24.4282,-113.501 28.3468,-111.99"/>
</g>
<!-- b -->
<g id="node2" class="node"><title>b</title>
<ellipse fill="#00c697" stroke="none" cx="72" cy="-90" rx="18" ry="18"/>
<text text-anchor="middle" x="72" y="-86.3" font-family="sans" font-size="14.00" fill="#333333">b</text>
</g>
<!-- a&#45;&gt;b -->
<g id="edge2" class="edge"><title>a&#45;&gt;b</title>
<path fill="none" stroke="#555555" d="M51.2622,-144.765C54.9085,-135.311 59.5549,-123.265 63.525,-112.972"/>
<polygon fill="#555555" stroke="#555555" points="65.5718,-113.501 65.7718,-107.147 61.6532,-111.99 65.5718,-113.501"/>
</g>
<!-- d -->
<g id="node4" class="node"><title>d</title>
<ellipse fill="#ffcc00" stroke="none" cx="18" cy="-18" rx="18" ry="18"/>
<text text-anchor="middle" x="18" y="-14.3" font-family="sans" font-size="14.00" fill="#333333">d</text>
</g>
<!-- c&#45;&gt;d -->
<g id="edge3" class="edge"><title>c&#45;&gt;d</title>
<path fill="none" stroke="#555555" d="M18,-71.6966C18,-62.796 18,-51.8232 18,-42.1989"/>
<polygon fill="#555555" stroke="#555555" points="20.1001,-42.1043 18,-36.1043 15.9001,-42.1044 20.1001,-42.1043"/>
</g>
</g>
</svg>
