<?xml version="1.0" encoding="UTF-8" standalone="no"?>
<!DOCTYPE svg PUBLIC "-//W3C//DTD SVG 1.1//EN"
 "http://www.w3.org/Graphics/SVG/1.1/DTD/svg11.dtd">
<!-- Generated by graphviz version 2.30.1 (20170916.1124)
 -->
<!-- Title: %3 Pages: 1 -->
<svg width="466pt" height="310pt"
 viewBox="0.00 0.00 466.00 310.00" xmlns="http://www.w3.org/2000/svg" xmlns:xlink="http://www.w3.org/1999/xlink">
<g id="graph0" class="graph" transform="scale(1 1) rotate(0) translate(4 306)">
<title>%3</title>
<polygon fill="none" stroke="none" points="-4,5 -4,-306 463,-306 463,5 -4,5"/>
<g id="clust1" class="cluster"><title>cluster_1</title>
<polygon fill="none" stroke="black" stroke-dasharray="5,2" points="8,-8 8,-294 150,-294 150,-8 8,-8"/>
<text text-anchor="middle" x="79" y="-270" font-family="sans" font-size="25.00">1</text>
</g>
<g id="clust2" class="cluster"><title>cluster_2</title>
<polygon fill="none" stroke="black" stroke-dasharray="5,2" points="158,-8 158,-294 300,-294 300,-8 158,-8"/>
<text text-anchor="middle" x="229" y="-270" font-family="sans" font-size="25.00">2</text>
</g>
<g id="clust3" class="cluster"><title>cluster_3</title>
<polygon fill="none" stroke="black" stroke-dasharray="5,2" points="308,-8 308,-294 450,-294 450,-8 308,-8"/>
<text text-anchor="middle" x="379" y="-270" font-family="sans" font-size="25.00">3</text>
</g>
<!-- a1 -->
<g id="node1" class="node"><title>a1</title>
<ellipse fill="#ff5966" stroke="none" cx="79" cy="-223" rx="26.3078" ry="26.7407"/>
<text text-anchor="middle" x="79" y="-226.8" font-family="sans" font-size="14.00" fill="#333333">a</text>
<text text-anchor="middle" x="79" y="-211.8" font-family="sans" font-size="14.00" fill="#333333">1</text>
</g>
<!-- b1 -->
<g id="node2" class="node"><title>b1</title>
<ellipse fill="#00c697" stroke="none" cx="43" cy="-133" rx="26.3078" ry="26.7407"/>
<text text-anchor="middle" x="43" y="-136.8" font-family="sans" font-size="14.00" fill="#333333">b</text>
<text text-anchor="middle" x="43" y="-121.8" font-family="sans" font-size="14.00" fill="#333333">1</text>
</g>
<!-- a1&#45;&gt;b1 -->
<g id="edge2" class="edge"><title>a1&#45;&gt;b1</title>
<path fill="none" stroke="#555555" d="M69.1628,-197.954C64.8372,-187.38 59.7136,-174.856 55.1522,-163.705"/>
<polygon fill="#555555" stroke="#555555" points="57.0408,-162.775 52.8253,-158.017 53.1535,-164.366 57.0408,-162.775"/>
</g>
<!-- c1 -->
<g id="node3" class="node"><title>c1</title>
<ellipse fill="#00b3fd" stroke="none" cx="115" cy="-133" rx="26.3078" ry="26.7407"/>
<text text-anchor="middle" x="115" y="-136.8" font-family="sans" font-size="14.00" fill="#333333">c</text>
<text text-anchor="middle" x="115" y="-121.8" font-family="sans" font-size="14.00" fill="#333333">1</text>
</g>
<!-- a1&#45;&gt;c1 -->
<g id="edge3" class="edge"><title>a1&#45;&gt;c1</title>
<path fill="none" stroke="#555555" d="M88.8372,-197.954C93.1628,-187.38 98.2864,-174.856 102.848,-163.705"/>
<polygon fill="#555555" stroke="#555555" points="104.847,-164.366 105.175,-158.017 100.959,-162.775 104.847,-164.366"/>
</g>
<!-- d1 -->
<g id="node4" class="node"><title>d1</title>
<ellipse fill="#ffcc00" stroke="none" cx="115" cy="-43" rx="26.3078" ry="26.7407"/>
<text text-anchor="middle" x="115" y="-46.8" font-family="sans" font-size="14.00" fill="#333333">d</text>
<text text-anchor="middle" x="115" y="-31.8" font-family="sans" font-size="14.00" fill="#333333">1</text>
</g>
<!-- c1&#45;&gt;d1 -->
<g id="edge1" class="edge"><title>c1&#45;&gt;d1</title>
<path fill="none" stroke="#555555" d="M115,-106.073C115,-96.6684 115,-85.9305 115,-76.0598"/>
<polygon fill="#555555" stroke="#555555" points="117.1,-76.0457 115,-70.0457 112.9,-76.0458 117.1,-76.0457"/>
</g>
<!-- a2 -->
<g id="node5" class="node"><title>a2</title>
<ellipse fill="#ff5966" stroke="none" cx="229" cy="-223" rx="26.3078" ry="26.7407"/>
<text text-anchor="middle" x="229" y="-226.8" font-family="sans" font-size="14.00" fill="#333333">a</text>
<text text-anchor="middle" x="229" y="-211.8" font-family="sans" font-size="14.00" fill="#333333">2</text>
</g>
<!-- b2 -->
<g id="node6" class="node"><title>b2</title>
<ellipse fill="#00c697" stroke="none" cx="193" cy="-133" rx="26.3078" ry="26.7407"/>
<text text-anchor="middle" x="193" y="-136.8" font-family="sans" font-size="14.00" fill="#333333">b</text>
<text text-anchor="middle" x="193" y="-121.8" font-family="sans" font-size="14.00" fill="#333333">2</text>
</g>
<!-- a2&#45;&gt;b2 -->
<g id="edge5" class="edge"><title>a2&#45;&gt;b2</title>
<path fill="none" stroke="#555555" d="M219.163,-197.954C214.837,-187.38 209.714,-174.856 205.152,-163.705"/>
<polygon fill="#555555" stroke="#555555" points="207.041,-162.775 202.825,-158.017 203.153,-164.366 207.041,-162.775"/>
</g>
<!-- c2 -->
<g id="node7" class="node"><title>c2</title>
<ellipse fill="#00b3fd" stroke="none" cx="265" cy="-133" rx="26.3078" ry="26.7407"/>
<text text-anchor="middle" x="265" y="-136.8" font-family="sans" font-size="14.00" fill="#333333">c</text>
<text text-anchor="middle" x="265" y="-121.8" font-family="sans" font-size="14.00" fill="#333333">2</text>
</g>
<!-- a2&#45;&gt;c2 -->
<g id="edge6" class="edge"><title>a2&#45;&gt;c2</title>
<path fill="none" stroke="#555555" d="M238.837,-197.954C243.163,-187.38 248.286,-174.856 252.848,-163.705"/>
<polygon fill="#555555" stroke="#555555" points="254.847,-164.366 255.175,-158.017 250.959,-162.775 254.847,-164.366"/>
</g>
<!-- d2 -->
<g id="node8" class="node"><title>d2</title>
<ellipse fill="#ffcc00" stroke="none" cx="265" cy="-43" rx="26.3078" ry="26.7407"/>
<text text-anchor="middle" x="265" y="-46.8" font-family="sans" font-size="14.00" fill="#333333">d</text>
<text text-anchor="middle" x="265" y="-31.8" font-family="sans" font-size="14.00" fill="#333333">2</text>
</g>
<!-- c2&#45;&gt;d2 -->
<g id="edge4" class="edge"><title>c2&#45;&gt;d2</title>
<path fill="none" stroke="#555555" d="M265,-106.073C265,-96.6684 265,-85.9305 265,-76.0598"/>
<polygon fill="#555555" stroke="#555555" points="267.1,-76.0457 265,-70.0457 262.9,-76.0458 267.1,-76.0457"/>
</g>
<!-- a3 -->
<g id="node9" class="node"><title>a3</title>
<ellipse fill="#ff5966" stroke="none" cx="379" cy="-223" rx="26.3078" ry="26.7407"/>
<text text-anchor="middle" x="379" y="-226.8" font-family="sans" font-size="14.00" fill="#333333">a</text>
<text text-anchor="middle" x="379" y="-211.8" font-family="sans" font-size="14.00" fill="#333333">3</text>
</g>
<!-- b3 -->
<g id="node10" class="node"><title>b3</title>
<ellipse fill="#00c697" stroke="none" cx="343" cy="-133" rx="26.3078" ry="26.7407"/>
<text text-anchor="middle" x="343" y="-136.8" font-family="sans" font-size="14.00" fill="#333333">b</text>
<text text-anchor="middle" x="343" y="-121.8" font-family="sans" font-size="14.00" fill="#333333">3</text>
</g>
<!-- a3&#45;&gt;b3 -->
<g id="edge8" class="edge"><title>a3&#45;&gt;b3</title>
<path fill="none" stroke="#555555" d="M369.163,-197.954C364.837,-187.38 359.714,-174.856 355.152,-163.705"/>
<polygon fill="#555555" stroke="#555555" points="357.041,-162.775 352.825,-158.017 353.153,-164.366 357.041,-162.775"/>
</g>
<!-- c3 -->
<g id="node11" class="node"><title>c3</title>
<ellipse fill="#00b3fd" stroke="none" cx="415" cy="-133" rx="26.3078" ry="26.7407"/>
<text text-anchor="middle" x="415" y="-136.8" font-family="sans" font-size="14.00" fill="#333333">c</text>
<text text-anchor="middle" x="415" y="-121.8" font-family="sans" font-size="14.00" fill="#333333">3</text>
</g>
<!-- a3&#45;&gt;c3 -->
<g id="edge9" class="edge"><title>a3&#45;&gt;c3</title>
<path fill="none" stroke="#555555" d="M388.837,-197.954C393.163,-187.38 398.286,-174.856 402.848,-163.705"/>
<polygon fill="#555555" stroke="#555555" points="404.847,-164.366 405.175,-158.017 400.959,-162.775 404.847,-164.366"/>
</g>
<!-- d3 -->
<g id="node12" class="node"><title>d3</title>
<ellipse fill="#ffcc00" stroke="none" cx="415" cy="-43" rx="26.3078" ry="26.7407"/>
<text text-anchor="middle" x="415" y="-46.8" font-family="sans" font-size="14.00" fill="#333333">d</text>
<text text-anchor="middle" x="415" y="-31.8" font-family="sans" font-size="14.00" fill="#333333">3</text>
</g>
<!-- c3&#45;&gt;d3 -->
<g id="edge7" class="edge"><title>c3&#45;&gt;d3</title>
<path fill="none" stroke="#555555" d="M415,-106.073C415,-96.6684 415,-85.9305 415,-76.0598"/>
<polygon fill="#555555" stroke="#555555" points="417.1,-76.0457 415,-70.0457 412.9,-76.0458 417.1,-76.0457"/>
</g>
</g>
</svg>
