<?xml version="1.0" encoding="UTF-8" standalone="no"?>
<!-- Created with Inkscape (http://www.inkscape.org/) -->

<svg
   xmlns:dc="http://purl.org/dc/elements/1.1/"
   xmlns:cc="http://creativecommons.org/ns#"
   xmlns:rdf="http://www.w3.org/1999/02/22-rdf-syntax-ns#"
   xmlns:svg="http://www.w3.org/2000/svg"
   xmlns="http://www.w3.org/2000/svg"
   xmlns:sodipodi="http://sodipodi.sourceforge.net/DTD/sodipodi-0.dtd"
   xmlns:inkscape="http://www.inkscape.org/namespaces/inkscape"
   width="591.74628"
   height="343.05603"
   viewBox="0 0 156.5662 90.766907"
   version="1.1"
   id="svg8"
   inkscape:version="0.92.2 (5c3e80d, 2017-08-06)"
   sodipodi:docname="clock123.svg">
  <defs
     id="defs2" />
  <sodipodi:namedview
     id="base"
     pagecolor="#ffffff"
     bordercolor="#666666"
     borderopacity="1.0"
     inkscape:pageopacity="0.0"
     inkscape:pageshadow="2"
     inkscape:zoom="0.46262316"
     inkscape:cx="285.17388"
     inkscape:cy="143.74552"
     inkscape:document-units="mm"
     inkscape:current-layer="layer1"
     showgrid="false"
     units="px"
     inkscape:window-width="1920"
     inkscape:window-height="981"
     inkscape:window-x="0"
     inkscape:window-y="28"
     inkscape:window-maximized="1"
     fit-margin-top="0"
     fit-margin-left="0"
     fit-margin-right="0"
     fit-margin-bottom="0" />
  <metadata
     id="metadata5">
    <rdf:RDF>
      <cc:Work
         rdf:about="">
        <dc:format>image/svg+xml</dc:format>
        <dc:type
           rdf:resource="http://purl.org/dc/dcmitype/StillImage" />
        <dc:title></dc:title>
      </cc:Work>
    </rdf:RDF>
  </metadata>
  <g
     inkscape:label="Layer 1"
     inkscape:groupmode="layer"
     id="layer1"
     transform="translate(66.556595,-206.53589)">
    <g
       id="g2793">
      <g
         id="text821"
         style="font-style:normal;font-variant:normal;font-weight:300;font-stretch:normal;font-size:47.15581131px;line-height:1.25;font-family:Lato;-inkscape-font-specification:'Lato, Light';font-variant-ligatures:normal;font-variant-caps:normal;font-variant-numeric:normal;font-feature-settings:normal;text-align:start;letter-spacing:0px;word-spacing:0px;writing-mode:lr-tb;text-anchor:start;fill:#000000;fill-opacity:1;stroke:none;stroke-width:2.18529773px;stroke-linecap:butt;stroke-linejoin:miter;stroke-opacity:1"
         aria-label="1">
        <path
           id="path841"
           style="stroke-width:2.18529773px"
           d="m 28.106248,241.50548 v 1.74476 H 10.894377 v -1.74476 h 7.662819 v -27.06744 q 0,-0.80165 0.07073,-1.69761 l -7.356306,6.53108 q -0.330091,0.28294 -0.660182,0.21221 -0.33009,-0.0707 -0.518714,-0.28294 l -0.683759,-0.94312 9.643363,-8.51162 h 1.768343 v 31.75944 z"
           inkscape:connector-curvature="0" />
      </g>
      <g
         id="use823"
         style="font-style:normal;font-variant:normal;font-weight:300;font-stretch:normal;font-size:47.15581131px;line-height:1.25;font-family:Lato;-inkscape-font-specification:'Lato, Light';font-variant-ligatures:normal;font-variant-caps:normal;font-variant-numeric:normal;font-feature-settings:normal;text-align:start;letter-spacing:0px;word-spacing:0px;writing-mode:lr-tb;text-anchor:start;fill:#000000;fill-opacity:1;stroke:none;stroke-width:2.18529773px;stroke-linecap:butt;stroke-linejoin:miter;stroke-opacity:1"
         aria-label="2">
        <path
           id="path838"
           style="stroke-width:2.18529773px"
           d="m 56.562979,255.85208 q 0.377247,0 0.589448,0.23578 0.212201,0.2122 0.212201,0.56587 v 1.32036 H 35.838 v -0.80165 q 0,-0.25936 0.11789,-0.51871 0.141467,-0.28294 0.353668,-0.47156 l 11.388129,-11.5296 q 1.414674,-1.43825 2.617147,-2.78219 1.202474,-1.34394 2.074856,-2.71146 0.89596,-1.36752 1.391096,-2.80577 0.495137,-1.43825 0.495137,-3.06513 0,-1.83907 -0.613026,-3.18301 -0.613026,-1.36752 -1.626876,-2.2399 -1.013849,-0.87239 -2.35779,-1.29679 -1.343941,-0.4244 -2.782193,-0.4244 -1.57972,0 -2.92366,0.49513 -1.320363,0.47156 -2.357791,1.34394 -1.01385,0.84881 -1.697609,2.05128 -0.660181,1.1789 -0.919538,2.59357 -0.165046,0.51872 -0.447981,0.68376 -0.259357,0.16505 -0.730915,0.11789 l -1.155317,-0.18862 q 0.306513,-2.14559 1.178895,-3.81962 0.872383,-1.67403 2.216323,-2.82935 1.343941,-1.15532 3.112284,-1.74477 1.768343,-0.61302 3.819621,-0.61302 1.90981,0 3.630997,0.56587 1.744765,0.54229 3.065128,1.67403 1.34394,1.10816 2.122011,2.80577 0.778071,1.67403 0.778071,3.93751 0,1.88623 -0.589447,3.51311 -0.56587,1.6033 -1.556142,3.0887 -0.990272,1.48541 -2.310635,2.90009 -1.296785,1.39109 -2.735037,2.85292 l -10.445012,10.65722 q 0.754493,-0.18863 1.556142,-0.28294 0.825226,-0.0943 1.650453,-0.0943 z"
           inkscape:connector-curvature="0" />
      </g>
      <g
         id="use829"
         style="font-style:normal;font-variant:normal;font-weight:300;font-stretch:normal;font-size:47.15581131px;line-height:1.25;font-family:Lato;-inkscape-font-specification:'Lato, Light';font-variant-ligatures:normal;font-variant-caps:normal;font-variant-numeric:normal;font-feature-settings:normal;text-align:start;letter-spacing:0px;word-spacing:0px;writing-mode:lr-tb;text-anchor:start;fill:#000000;fill-opacity:1;stroke:none;stroke-width:2.18529773px;stroke-linecap:butt;stroke-linejoin:miter;stroke-opacity:1"
         aria-label="3">
        <path
           id="path835"
           style="stroke-width:2.18529773px"
           d="m 69.473243,255.78677 q 0.306513,-2.14559 1.178895,-3.81962 0.872383,-1.67404 2.216323,-2.82935 1.343941,-1.15532 3.112284,-1.74477 1.768343,-0.61302 3.819621,-0.61302 1.90981,0 3.607419,0.54229 1.697609,0.51871 2.970816,1.57972 1.296785,1.061 2.0277,2.64072 0.754493,1.57972 0.754493,3.65458 0,1.62687 -0.495136,2.94724 -0.495136,1.29678 -1.391096,2.28705 -0.872383,0.99028 -2.074856,1.67403 -1.202473,0.66019 -2.617147,1.01385 3.678153,0.68376 5.540807,2.85293 1.886233,2.14559 1.886233,5.37576 0,2.05128 -0.825227,3.81962 -0.825227,1.74477 -2.263479,3.01798 -1.438252,1.2732 -3.395218,2.00412 -1.956966,0.70734 -4.244023,0.70734 -2.852927,0 -4.762737,-0.7545 -1.886233,-0.77807 -3.112284,-2.00412 -1.226051,-1.22605 -1.90981,-2.73504 -0.683759,-1.53256 -1.108162,-3.04155 l 0.895961,-0.37724 q 0.377246,-0.16505 0.778071,-0.0943 0.424402,0.0707 0.613025,0.54229 0.11789,0.28293 0.306513,0.89596 0.212201,0.58945 0.589448,1.32036 0.377246,0.73092 0.966694,1.50899 0.613025,0.75449 1.508986,1.39109 0.919538,0.63661 2.192745,1.03743 1.273207,0.40083 3.017972,0.40083 2.122011,0 3.701731,-0.70734 1.603298,-0.70734 2.664303,-1.79192 1.084584,-1.10816 1.603298,-2.45211 0.542292,-1.36751 0.542292,-2.64072 0,-1.53256 -0.495136,-2.85293 -0.471558,-1.32036 -1.603298,-2.26348 -1.131739,-0.96669 -2.994394,-1.50898 -1.839076,-0.56587 -4.550536,-0.56587 v -1.62688 q 2.169168,-0.0471 3.819621,-0.56587 1.650453,-0.54229 2.758615,-1.46183 1.108162,-0.91954 1.674031,-2.19274 0.56587,-1.27321 0.56587,-2.80577 0,-1.76835 -0.589448,-3.06513 -0.589447,-1.29679 -1.579719,-2.14559 -0.990272,-0.8488 -2.310635,-1.24963 -1.320363,-0.40082 -2.758615,-0.40082 -1.57972,0 -2.92366,0.49513 -1.343941,0.47156 -2.381369,1.34394 -1.01385,0.84881 -1.697609,2.05128 -0.683759,1.1789 -0.943116,2.59357 -0.141468,0.51871 -0.400825,0.68376 -0.259357,0.16505 -0.730915,0.11789 z"
           inkscape:connector-curvature="0" />
      </g>
      <g
         id="g2164"
         transform="matrix(0.00709605,0,0,-0.00709605,-66.568724,297.34537)"
         style="fill:#000000;stroke:none">
        <path
           id="path2136"
           d="m 4495,12788 c -65,-23 -124,-77 -155,-143 -19,-38 -20,-71 -20,-673 0,-700 -3,-665 67,-742 68,-76 98,-84 331,-88 l 202,-4 v -258 -258 l -72,-7 c -1048,-96 -2036,-491 -2841,-1137 -53,-43 -101,-78 -105,-78 -4,0 -36,28 -70,63 l -62,62 91,90 c 114,114 131,140 131,209 0,41 -6,65 -25,98 -37,63 -604,624 -649,643 -49,20 -104,19 -153,-4 -49,-23 -799,-772 -814,-814 -16,-40 -13,-102 4,-145 20,-46 579,-611 643,-649 48,-29 131,-34 174,-12 12,6 68,56 123,110 l 101,99 59,-60 59,-59 -85,-88 C 947,8440 543,7769 290,7048 55,6384 -42,5594 20,4865 150,3357 911,1983 2125,1068 2924,465 3857,110 4880,18 c 187,-16 693,-16 880,0 914,82 1735,366 2480,857 1145,755 1955,1915 2260,3235 203,877 182,1781 -62,2658 -136,492 -382,1028 -673,1471 -345,525 -815,1017 -1325,1386 -577,418 -1223,712 -1915,873 -237,56 -544,104 -752,118 l -103,7 v 258 257 l 203,4 c 232,4 262,12 330,88 70,77 67,42 67,742 0,710 3,675 -74,751 -80,77 -19,72 -891,74 -527,1 -790,-2 -810,-9 z M 5687,9825 c 971,-83 1854,-452 2588,-1084 732,-630 1254,-1499 1459,-2431 81,-368 101,-562 101,-990 0,-380 -8,-489 -61,-790 C 9583,3431 8977,2431 8085,1740 7513,1297 6815,988 6110,866 c -311,-54 -400,-61 -790,-61 -390,0 -479,7 -790,61 -1118,194 -2143,825 -2831,1744 -486,648 -774,1374 -876,2210 -26,208 -25,793 0,1000 89,717 303,1326 670,1910 543,862 1382,1528 2342,1860 590,204 1243,287 1852,235 z"
           inkscape:connector-curvature="0" />
        <path
           id="path2138"
           d="m 5270,9360 v -240 h 50 50 v 240 240 h -50 -50 z"
           inkscape:connector-curvature="0" />
        <path
           id="path2140"
           d="m 3180,9028 c -19,-12 -36,-23 -38,-24 -2,-1 217,-387 234,-412 5,-7 84,39 84,49 0,14 -230,409 -238,409 -4,0 -23,-10 -42,-22 z"
           inkscape:connector-curvature="0" />
        <path
           id="path2142"
           d="m 7296,8844 c -65,-113 -117,-206 -115,-208 20,-15 81,-47 83,-45 11,13 237,411 234,413 -12,9 -76,46 -79,46 -3,0 -58,-93 -123,-206 z"
           inkscape:connector-curvature="0" />
        <path
           id="path2144"
           d="m 5247,8788 -75,-143 -11,-440 c -6,-242 -16,-593 -21,-780 -18,-611 -29,-1035 -36,-1303 l -7,-263 -54,-26 c -174,-86 -304,-298 -305,-502 -2,-162 50,-296 156,-409 118,-125 258,-186 426,-186 168,0 308,61 426,186 147,156 196,379 127,580 -16,46 -46,110 -67,141 -49,73 -140,156 -211,191 l -55,27 v 57 c 0,31 -16,659 -35,1394 l -35,1337 -70,141 c -39,77 -72,140 -74,140 -3,0 -38,-64 -79,-142 z m 161,-3305 c 71,-33 114,-132 93,-210 -22,-80 -101,-143 -181,-143 -48,0 -110,31 -143,69 -31,38 -51,103 -43,144 27,134 151,198 274,140 z"
           inkscape:connector-curvature="0" />
        <path
           id="path2146"
           d="m 1621,7466 c -12,-18 -21,-37 -21,-42 0,-10 389,-237 404,-236 5,0 19,18 32,39 l 23,39 -203,117 c -112,64 -206,117 -209,117 -3,0 -15,-15 -26,-34 z"
           inkscape:connector-curvature="0" />
        <path
           id="path2148"
           d="m 8790,7386 c -107,-62 -195,-117 -197,-122 -2,-5 7,-26 20,-46 l 22,-37 135,78 c 74,42 167,96 207,119 l 71,42 -21,40 c -12,22 -26,40 -32,39 -5,0 -98,-51 -205,-113 z"
           inkscape:connector-curvature="0" />
        <path
           id="path2150"
           d="m 1049,5373 c -4,-15 0,-93 5,-93 3,0 110,0 236,0 h 230 v 48 47 h -235 c -129,0 -235,-1 -236,-2 z"
           inkscape:connector-curvature="0" />
        <path
           id="path2152"
           d="m 9120,5328 v -48 h 241 240 l -3,45 -3,46 -238,2 -237,2 z"
           inkscape:connector-curvature="0" />
        <path
           id="path2154"
           d="m 1805,3353 c -110,-63 -202,-116 -203,-118 -6,-6 8,-39 27,-64 l 18,-24 206,119 206,119 -21,35 c -12,19 -24,38 -27,42 -3,4 -96,-45 -206,-109 z"
           inkscape:connector-curvature="0" />
        <path
           id="path2156"
           d="m 8611,3429 c -13,-22 -19,-44 -15,-49 14,-13 393,-230 401,-230 5,0 18,18 30,40 l 21,40 -96,57 c -53,31 -146,85 -205,120 -60,34 -110,63 -111,63 -1,0 -13,-18 -25,-41 z"
           inkscape:connector-curvature="0" />
        <path
           id="path2158"
           d="m 3258,1854 -117,-205 41,-25 c 22,-14 44,-22 48,-17 12,13 230,395 230,403 0,6 -73,51 -81,50 -2,-1 -57,-93 -121,-206 z"
           inkscape:connector-curvature="0" />
        <path
           id="path2160"
           d="m 7220,2038 c -19,-12 -37,-23 -39,-24 -2,-2 224,-400 235,-413 2,-2 62,30 83,45 4,4 -232,414 -239,414 -3,0 -21,-10 -40,-22 z"
           inkscape:connector-curvature="0" />
        <path
           id="path2162"
           d="m 5270,1290 v -240 h 50 50 v 240 240 h -50 -50 z"
           inkscape:connector-curvature="0" />
      </g>
    </g>
  </g>
</svg>
