<?xml version="1.0" encoding="UTF-8" standalone="no"?>
<!-- Created with Inkscape (http://www.inkscape.org/) -->

<svg
   xmlns:dc="http://purl.org/dc/elements/1.1/"
   xmlns:cc="http://creativecommons.org/ns#"
   xmlns:rdf="http://www.w3.org/1999/02/22-rdf-syntax-ns#"
   xmlns:svg="http://www.w3.org/2000/svg"
   xmlns="http://www.w3.org/2000/svg"
   xmlns:sodipodi="http://sodipodi.sourceforge.net/DTD/sodipodi-0.dtd"
   xmlns:inkscape="http://www.inkscape.org/namespaces/inkscape"
   width="103.56852mm"
   height="102.1088mm"
   viewBox="0 0 103.56852 102.1088"
   version="1.1"
   id="svg8"
   inkscape:version="0.92.2 (5c3e80d, 2017-08-06)"
   sodipodi:docname="factory.svg">
  <defs
     id="defs2" />
  <sodipodi:namedview
     id="base"
     pagecolor="#ffffff"
     bordercolor="#666666"
     borderopacity="1.0"
     inkscape:pageopacity="0.0"
     inkscape:pageshadow="2"
     inkscape:zoom="0.702883"
     inkscape:cx="45.448006"
     inkscape:cy="304.1171"
     inkscape:document-units="mm"
     inkscape:current-layer="layer1"
     showgrid="false"
     inkscape:snap-global="false"
     fit-margin-top="0"
     fit-margin-left="0"
     fit-margin-right="0"
     fit-margin-bottom="0"
     inkscape:window-width="1920"
     inkscape:window-height="981"
     inkscape:window-x="0"
     inkscape:window-y="28"
     inkscape:window-maximized="1" />
  <metadata
     id="metadata5">
    <rdf:RDF>
      <cc:Work
         rdf:about="">
        <dc:format>image/svg+xml</dc:format>
        <dc:type
           rdf:resource="http://purl.org/dc/dcmitype/StillImage" />
        <dc:title></dc:title>
      </cc:Work>
    </rdf:RDF>
  </metadata>
  <g
     inkscape:label="Layer 1"
     inkscape:groupmode="layer"
     id="layer1"
     transform="translate(-46.110196,-126.85551)">
    <g
       id="g921"
       transform="matrix(1,0,0,0.75715875,0,55.601981)">
      <path
         transform="scale(0.26458333)"
         id="rect815"
         d="m 184.04688,642.51953 c -4.8212,0 -8.70313,4.46 -8.70313,10 v 202.85742 c 0,5.54 3.88193,10 8.70313,10 h 372.96484 c 4.82119,0 8.70312,-4.46 8.70312,-10 V 652.51953 c 0,-5.54 -3.88193,-10 -8.70312,-10 z m 151.58984,62.90625 h 28.69922 c 3.61168,0 6.51953,3.95676 6.51953,8.8711 v 56.71874 c 0,4.91434 -2.90785,8.86915 -6.51953,8.86915 h -28.69922 c -3.61168,0 -6.51758,-3.95481 -6.51758,-8.86915 v -56.71874 c 0,-4.91434 2.9059,-8.8711 6.51758,-8.8711 z m 67.58008,0 h 28.69922 c 3.61167,0 6.51953,3.95676 6.51953,8.8711 v 56.71874 c 0,4.91434 -2.90786,8.86915 -6.51953,8.86915 H 403.2168 c -3.61168,0 -6.51953,-3.95481 -6.51953,-8.86915 v -56.71874 c 0,-4.91434 2.90785,-8.8711 6.51953,-8.8711 z m 67.57812,0 h 28.69922 c 3.61168,0 6.51953,3.95676 6.51953,8.8711 v 56.71874 c 0,4.91434 -2.90785,8.86915 -6.51953,8.86915 h -28.69922 c -3.61168,0 -6.51953,-3.95481 -6.51953,-8.86915 v -56.71874 c 0,-4.91434 2.90785,-8.8711 6.51953,-8.8711 z m -241.69726,0.24024 h 63.93945 c 5.54,0 10,4.46 10,10 v 55.40234 c 0,5.54 -4.46,10 -10,10 h -63.93945 c -5.54,0 -10,-4.46 -10,-10 v -55.40234 c 0,-5.54 4.46,-10 10,-10 z"
         style="opacity:1;fill:#000000;fill-opacity:1;stroke:none;stroke-width:1.86574471;stroke-linecap:round;stroke-linejoin:round;stroke-miterlimit:4;stroke-dasharray:none;stroke-dashoffset:0;stroke-opacity:1"
         inkscape:connector-curvature="0" />
      <rect
         ry="2.3470209"
         rx="1.7248929"
         y="121.58556"
         x="133.40749"
         height="53.828896"
         width="16.186312"
         id="rect895"
         style="opacity:1;fill:#000000;fill-opacity:1;stroke:none;stroke-width:0.52916664;stroke-linecap:round;stroke-linejoin:round;stroke-miterlimit:4;stroke-dasharray:none;stroke-dashoffset:0;stroke-opacity:1" />
      <g
         style="stroke:none"
         transform="matrix(0.93111073,0,0,0.80093043,2.6698722,34.950466)"
         id="g893">
        <path
           style="fill:#000000;fill-opacity:1;stroke:none;stroke-width:0.15501814px;stroke-linecap:butt;stroke-linejoin:miter;stroke-opacity:1"
           d="m 108.43277,136.46208 0.25914,33.22227 19.43589,-0.18771 z"
           id="path860"
           inkscape:connector-curvature="0" />
        <path
           style="fill:#000000;fill-opacity:1;stroke:none;stroke-width:0.15501814px;stroke-linecap:butt;stroke-linejoin:miter;stroke-opacity:1"
           d="m 87.839979,136.99125 0.25914,33.22227 19.435821,-0.18771 z"
           id="path860-6"
           inkscape:connector-curvature="0" />
        <path
           style="fill:#000000;fill-opacity:1;stroke:none;stroke-width:0.15501814px;stroke-linecap:butt;stroke-linejoin:miter;stroke-opacity:1"
           d="m 67.247168,136.46208 0.25914,33.22227 19.435847,-0.18771 z"
           id="path860-0"
           inkscape:connector-curvature="0" />
        <path
           style="fill:#000000;fill-opacity:1;stroke:none;stroke-width:0.15501814px;stroke-linecap:butt;stroke-linejoin:miter;stroke-opacity:1"
           d="m 46.654305,136.46208 0.25914,33.22227 19.43589,-0.18771 z"
           id="path860-4"
           inkscape:connector-curvature="0" />
      </g>
      <g
         transform="matrix(-0.89873385,0,0,1,34.145194,37.642586)"
         id="g908">
        <path
           style="opacity:1;fill:#000000;fill-opacity:1;stroke:none;stroke-width:0.52916664;stroke-linecap:round;stroke-linejoin:round;stroke-miterlimit:4;stroke-dasharray:none;stroke-dashoffset:0;stroke-opacity:1"
           id="path899"
           sodipodi:type="arc"
           sodipodi:cx="-109.1635"
           sodipodi:cy="69.450569"
           sodipodi:rx="6.3992395"
           sodipodi:ry="6.5874524"
           sodipodi:start="0"
           sodipodi:end="6.2495877"
           sodipodi:open="true"
           d="m -102.76426,69.450569 a 6.3992395,6.5874524 0 0 1 -6.34549,6.58722 6.3992395,6.5874524 0 0 1 -6.45208,-6.476564 6.3992395,6.5874524 0 0 1 6.2371,-6.696017 6.3992395,6.5874524 0 0 1 6.55686,6.36408" />
        <path
           style="opacity:1;fill:#000000;fill-opacity:1;stroke:none;stroke-width:0.52916664;stroke-linecap:round;stroke-linejoin:round;stroke-miterlimit:4;stroke-dasharray:none;stroke-dashoffset:0;stroke-opacity:1"
           id="path901"
           sodipodi:type="arc"
           sodipodi:cx="-99.941063"
           sodipodi:cy="65.121674"
           sodipodi:rx="8.0931559"
           sodipodi:ry="8.657795"
           sodipodi:start="0"
           sodipodi:end="6.2495877"
           sodipodi:open="true"
           d="m -91.847907,65.121674 a 8.0931559,8.657795 0 0 1 -8.025179,8.657489 8.0931559,8.657795 0 0 1 -8.159994,-8.512056 8.0931559,8.657795 0 0 1 7.88811,-8.80048 8.0931559,8.657795 0 0 1 8.292496,8.36422" />
        <path
           style="opacity:1;fill:#000000;fill-opacity:1;stroke:none;stroke-width:0.52916664;stroke-linecap:round;stroke-linejoin:round;stroke-miterlimit:4;stroke-dasharray:none;stroke-dashoffset:0;stroke-opacity:1"
           id="path903"
           sodipodi:type="arc"
           sodipodi:cx="-117.8213"
           sodipodi:cy="76.979088"
           sodipodi:rx="3.7642581"
           sodipodi:ry="3.9524713"
           sodipodi:start="0"
           sodipodi:end="6.2495877"
           sodipodi:open="true"
           d="m -114.05704,76.979088 a 3.7642581,3.9524713 0 0 1 -3.73264,3.952332 3.7642581,3.9524713 0 0 1 -3.79534,-3.885939 3.7642581,3.9524713 0 0 1 3.66888,-4.01761 3.7642581,3.9524713 0 0 1 3.85698,3.818448" />
      </g>
    </g>
  </g>
</svg>
