<?xml version="1.0" encoding="UTF-8" standalone="yes"?>
<svg xmlns="http://www.w3.org/2000/svg" viewBox="0 0 32 32" width="96" height="96" fill="#000000">
  <path d="M 20.5 4 L 14.125 4.03125 C 14.335938 4.089844 14.8125 4.171875 15.15625 4.75 L 18.3125 10.25 L 16.59375 11.25 L 22.1875 11.21875 L 24.9375 6.40625 L 23.21875 7.40625 L 21.59375 4.5625 C 21.421875 4.199219 21.152344 3.941406 20.5 4 Z M 12.625 4.6875 C 11.777344 4.632813 10.792969 4.929688 10.0625 5.9375 L 10.03125 6.03125 L 8 9.625 L 12.875 12.4375 L 15.625 7.59375 L 14.4375 5.53125 C 14.207031 5.148438 13.472656 4.742188 12.625 4.6875 Z M 25.34375 11.6875 L 20.46875 14.5 L 23.25 19.34375 L 25.625 19.34375 C 26.507813 19.324219 28.453125 17.640625 27.4375 15.375 L 27.40625 15.25 Z M 4.125 12.84375 L 5.84375 13.84375 L 4.1875 16.6875 C 3.976563 17.011719 3.886719 17.367188 4.25 17.90625 L 7.46875 23.4375 C 7.410156 23.207031 7.269531 22.730469 7.59375 22.15625 L 10.75 16.6875 L 12.46875 17.6875 L 9.65625 12.84375 Z M 19.46875 18.34375 L 16.6875 23.1875 L 19.4375 28 L 19.46875 26 L 22.75 26 C 23.132813 26.035156 23.480469 25.9375 23.75 25.34375 L 26.9375 19.8125 C 26.785156 19.964844 26.453125 20.324219 25.78125 20.34375 L 19.46875 20.34375 Z M 9.78125 20.3125 L 8.59375 22.375 C 8.171875 23.164063 8.648438 25.6875 11.125 25.9375 L 11.25 25.96875 L 15.375 25.96875 L 15.375 20.3125 Z"/>
</svg>
