<?xml version="1.0" encoding="UTF-8" standalone="no"?>
<!-- Created with Inkscape (http://www.inkscape.org/) -->

<svg
   xmlns:dc="http://purl.org/dc/elements/1.1/"
   xmlns:cc="http://creativecommons.org/ns#"
   xmlns:rdf="http://www.w3.org/1999/02/22-rdf-syntax-ns#"
   xmlns:svg="http://www.w3.org/2000/svg"
   xmlns="http://www.w3.org/2000/svg"
   xmlns:xlink="http://www.w3.org/1999/xlink"
   xmlns:sodipodi="http://sodipodi.sourceforge.net/DTD/sodipodi-0.dtd"
   xmlns:inkscape="http://www.inkscape.org/namespaces/inkscape"
   width="184.25699mm"
   height="180.23601mm"
   viewBox="0 0 184.25699 180.23601"
   version="1.1"
   id="svg8"
   inkscape:version="0.92.2 (5c3e80d, 2017-08-06)"
   sodipodi:docname="research-plot.svg">
  <defs
     id="defs2">
    <linearGradient
       inkscape:collect="always"
       id="linearGradient6150">
      <stop
         style="stop-color:#350ca2;stop-opacity:1;"
         offset="0"
         id="stop6146" />
      <stop
         style="stop-color:#350ca2;stop-opacity:0;"
         offset="1"
         id="stop6148" />
    </linearGradient>
    <linearGradient
       inkscape:collect="always"
       xlink:href="#linearGradient6150"
       id="linearGradient6152"
       x1="20.862221"
       y1="119.2516"
       x2="184.70853"
       y2="119.2516"
       gradientUnits="userSpaceOnUse"
       gradientTransform="translate(4.0708734,21.615687)" />
  </defs>
  <sodipodi:namedview
     id="base"
     pagecolor="#ffffff"
     bordercolor="#666666"
     borderopacity="1.0"
     inkscape:pageopacity="0.0"
     inkscape:pageshadow="2"
     inkscape:zoom="0.62"
     inkscape:cx="333.83061"
     inkscape:cy="188.9558"
     inkscape:document-units="mm"
     inkscape:current-layer="layer1"
     showgrid="false"
     inkscape:window-width="1157"
     inkscape:window-height="1097"
     inkscape:window-x="20"
     inkscape:window-y="12"
     inkscape:window-maximized="0" />
  <metadata
     id="metadata5">
    <rdf:RDF>
      <cc:Work
         rdf:about="">
        <dc:format>image/svg+xml</dc:format>
        <dc:type
           rdf:resource="http://purl.org/dc/dcmitype/StillImage" />
        <dc:title></dc:title>
      </cc:Work>
    </rdf:RDF>
  </metadata>
  <g
     inkscape:label="Layer 1"
     inkscape:groupmode="layer"
     id="layer1"
     transform="translate(-4.0708734,-21.615687)">
    <rect
       style="fill:#333333;fill-rule:evenodd;stroke:#000000;stroke-width:0.26458332px;stroke-linecap:butt;stroke-linejoin:miter;stroke-opacity:1"
       id="rect4504"
       width="165.57796"
       height="3.8407257"
       x="22.617607"
       y="183.48521" />
    <rect
       style="fill:#333333;fill-rule:evenodd;stroke:#000000;stroke-width:0.26458332px;stroke-linecap:butt;stroke-linejoin:miter;stroke-opacity:1"
       id="rect4504-3"
       width="165.57796"
       height="3.8407257"
       x="21.748713"
       y="-22.611565"
       transform="rotate(89.998152)" />
    <rect
       style="fill:#333333;fill-rule:evenodd;stroke:#000000;stroke-width:0.10117149px;stroke-linecap:butt;stroke-linejoin:miter;stroke-opacity:1"
       id="rect4504-3-7-5"
       width="23.155544"
       height="4.0156159"
       x="27.824562"
       y="-5.2562661"
       transform="matrix(0.62376542,0.7816116,-1,3.3719717e-6,0,0)" />
    <rect
       style="fill:#333333;fill-rule:evenodd;stroke:#000000;stroke-width:0.10117149px;stroke-linecap:butt;stroke-linejoin:miter;stroke-opacity:1"
       id="rect4504-3-7-5-1"
       width="23.155544"
       height="4.0156159"
       x="-50.97995"
       y="-39.968159"
       transform="matrix(0.62376542,-0.7816116,-1,-3.3719717e-6,0,0)" />
    <rect
       style="fill:#333333;fill-rule:evenodd;stroke:#000000;stroke-width:0.10117149px;stroke-linecap:butt;stroke-linejoin:miter;stroke-opacity:1"
       id="rect4504-3-7-5-6"
       width="23.155544"
       height="4.0156159"
       x="217.62186"
       y="333.49893"
       transform="matrix(0.7816116,-0.62376542,3.3719717e-6,1,0,0)" />
    <rect
       style="fill:#333333;fill-rule:evenodd;stroke:#000000;stroke-width:0.10117149px;stroke-linecap:butt;stroke-linejoin:miter;stroke-opacity:1"
       id="rect4504-3-7-5-6-0"
       width="23.155544"
       height="4.0156159"
       x="217.62344"
       y="-37.136322"
       transform="matrix(0.7816116,0.62376542,3.3719717e-6,-1,0,0)" />
    <path
       style="fill:none;fill-rule:evenodd;stroke:url(#linearGradient6152);stroke-width:4.96500015;stroke-linecap:butt;stroke-linejoin:miter;stroke-miterlimit:4;stroke-dasharray:19.85999982, 4.96499995;stroke-dashoffset:0;stroke-opacity:1"
       d="m 22.617607,183.48521 c 0.711245,-0.71124 1.479136,-1.37003 2.133737,-2.13373 0.207003,-0.24151 0.284498,-0.569 0.426747,-0.8535 0.284498,-0.42675 0.515757,-0.89425 0.853495,-1.28024 0.662358,-0.75698 1.460855,-1.38609 2.133735,-2.13374 0.60932,-0.67702 1.097672,-1.45671 1.706992,-2.13373 0.67288,-0.74765 1.489805,-1.36102 2.133734,-2.13374 0.783376,-0.94005 1.303745,-2.08807 2.133738,-2.98723 0.889545,-0.96368 2.059879,-1.63313 2.98723,-2.56049 0.927352,-0.92734 1.706989,-1.99148 2.560485,-2.98723 2.498015,-2.91435 2.61711,-2.67373 4.267472,-5.97446 0.665117,-1.33023 2.54712,-5.6703 2.98723,-7.2547 1.21429,-4.37144 0.566143,-3.63488 1.280242,-7.68146 0.521457,-2.95491 1.090039,-3.9749 1.280242,-6.82795 0.0757,-1.13547 -0.07099,-2.2782 0,-3.41398 0.04328,-2.16056 0.710306,-4.25336 0.853496,-6.40121 0.0757,-1.13547 -0.08108,-2.27888 0,-3.41398 0.06165,-0.86307 0.257053,-1.71202 0.426746,-2.56048 0.420365,-2.10182 0.869778,-4.3919 1.706992,-6.40121 0.367014,-0.88083 0.853492,-1.70699 1.280242,-2.56048 1.11638,-2.23277 1.640408,-3.15553 2.560484,-5.54772 1.374642,-3.57408 0.151968,-1.58001 2.133734,-4.69422 1.101426,-1.730811 2.326662,-3.381261 3.41398,-5.120967 0.168582,-0.26973 0.228044,-0.605118 0.426746,-0.853496 0.501711,-0.627139 1.74792,-1.80871 2.560484,-2.133735 0.26415,-0.105661 0.577491,0.069 0.853496,0 0.617162,-0.154292 1.083186,-0.728734 1.706989,-0.853495 0.418459,-0.08369 0.853495,0 1.280242,0 0.426746,0 0.853495,0 1.280242,0 0.284498,0 0.57749,-0.069 0.853495,0 1.321025,0.330255 0.49239,0.551481 1.706989,1.280242 0.385725,0.231436 0.8779,0.225575 1.280242,0.426746 0.458739,0.22937 0.853492,0.568997 1.280242,0.853496 0.426746,0.284498 0.959844,0.452998 1.280242,0.853495 0.281006,0.351258 0.203567,0.889677 0.426746,1.280242 0.462052,0.808593 2.583587,3.235262 2.98723,3.840722 0.352878,0.52932 0.568997,1.138 0.853496,1.70699 0.426746,0.8535 0.853496,1.70699 1.280242,2.56049 0.426746,0.85349 0.913228,1.67965 1.280242,2.56048 0.692047,1.66091 1.038736,3.45034 1.706988,5.12097 0.236263,0.59065 0.686113,1.09324 0.853496,1.70699 0.264657,0.97041 0.182793,2.01141 0.426746,2.98723 0.185791,0.74316 0.633376,1.40001 0.853496,2.13374 0.208423,0.69474 0.178869,1.45207 0.426746,2.13373 0.326105,0.89679 0.937692,1.66985 1.280242,2.56048 0.858304,2.23159 0.736553,3.41276 1.706989,5.54772 0.343228,0.7551 0.943372,1.37578 1.280242,2.13374 0.238204,0.53595 0.164454,1.1824 0.426749,1.70698 0.45874,0.91748 1.156277,1.69508 1.706989,2.56049 0.445309,0.69977 0.693734,1.54723 1.280242,2.13374 0.449831,0.44983 1.257157,0.40366 1.706988,0.85349 0.449831,0.44983 0.446238,1.21828 0.853496,1.70699 0.328342,0.39401 0.879744,0.5331 1.280242,0.85349 0.314174,0.25134 0.531622,0.61209 0.853492,0.8535 0.167972,0.12598 2.373712,1.23355 2.560482,1.28024 0.14201,0.0355 1.99988,0.0669 2.13374,0 0.17993,-0.09 0.24681,-0.33678 0.42675,-0.42675 0.40234,-0.20117 0.99923,-0.0755 1.28024,-0.42675 0.36639,-0.45798 0.0513,-1.25642 0.42675,-1.70698 0.40725,-0.48871 1.13799,-0.569 1.70699,-0.8535 0.42674,-0.71124 0.76209,-1.48604 1.28024,-2.13373 0.62835,-0.78544 1.45712,-1.38947 2.13374,-2.13374 0.39768,-0.43746 3.34102,-4.00713 3.84072,-4.69422 0.60333,-0.82958 1.22067,-1.65732 1.70699,-2.56048 1.1203,-2.08057 1.6164,-4.24332 2.56048,-6.40121 2.6012,-5.94561 1.20546,-0.79414 2.13374,-6.82796 0.26786,-1.7411 0.6133,-3.02686 1.28024,-4.69422 0.23626,-0.59066 0.6029,-1.12227 0.8535,-1.70699 0.0487,-0.11367 0.83331,-2.53358 0.85349,-2.56048 0.19085,-0.25447 0.62858,-0.20184 0.85349,-0.42675 0.22492,-0.22492 0.20184,-0.62858 0.42675,-0.8535 0.10059,-0.10058 0.2845,0 0.42675,0 0.14225,0 0.29952,-0.0636 0.42675,0 0.17993,0.09 0.2845,0.2845 0.42674,0.42675 0.569,0.569 1.07864,1.20431 1.70699,1.70699 0.55539,0.44431 1.20407,0.77731 1.70699,1.28024 0.72533,0.72533 0.98166,1.83516 1.70699,2.56049 0.89907,0.89906 1.84318,1.1295 2.56049,2.13373 0.4821,0.67495 0.82014,1.4436 1.28024,2.13374 0.32623,0.48934 1.44026,1.08019 1.70699,1.28024 0.16093,0.1207 0.24681,0.33678 0.42675,0.42675 0.12987,0.0649 1.08805,0 1.28024,0 0.39562,0 1.8944,0.0957 2.13373,0 0.41928,-0.16771 2.88455,-2.04389 2.98724,-2.13374 5.3191,-4.65422 -1.52399,1.09724 2.98723,-3.41398 0.50292,-0.50292 1.20406,-0.77731 1.70698,-1.28024 0.64407,-0.64406 1.09768,-1.45672 1.707,-2.13374 0.67287,-0.74764 1.54212,-1.32026 2.13373,-2.13373 0.56126,-0.77173 0.76794,-1.75544 1.28024,-2.56049 1.6334,-2.56676 2.15967,-2.16485 4.26747,-4.694217 0.65669,-0.788019 1.16939,-1.686875 1.707,-2.560484 0.95682,-1.554845 2.21219,-3.842636 2.98723,-5.547715 0.31698,-0.697372 0.48147,-1.4641 0.85349,-2.133737 3.57373,-6.432711 -1.17996,3.640159 2.56048,-3.840723 0.34259,-0.685165 0.48148,-1.464104 0.8535,-2.133738 0.34541,-0.621742 0.93483,-1.085249 1.28024,-1.706988 0.37202,-0.669637 0.51091,-1.448576 0.8535,-2.133738 3.28792,-6.575854 -0.83563,2.777212 2.56048,-4.694222 0.31699,-0.69737 0.54238,-1.433724 0.85349,-2.133734 0.25837,-0.58133 0.6361,-1.109134 0.8535,-1.706989 0.3539,-0.973241 0.42496,-2.044467 0.85349,-2.987233 0.29432,-0.647494 0.93483,-1.085247 1.28025,-1.706988 0.37201,-0.669634 0.51091,-1.448576 0.85349,-2.133738 0.37094,-0.741878 0.9093,-1.391854 1.28024,-2.133735 0.20117,-0.402341 0.22558,-0.877901 0.42675,-1.280242 0.22937,-0.45874 0.66301,-0.80404 0.85349,-1.280242 0.10566,-0.264149 -0.12723,-0.599033 0,-0.853496 0.17994,-0.359865 0.63032,-0.518726 0.8535,-0.853492 0.15781,-0.236718 -0.20117,-0.652325 0,-0.853496 0.10058,-0.100587 0.32616,0.100584 0.42674,0 0.10059,-0.100587 -0.10058,-0.326162 0,-0.426746 0.10059,-0.100587 0.32617,0.100584 0.42675,0 0.10059,-0.100587 -0.10058,-0.326163 0,-0.42675 0.569,-0.568997 0.42675,0.711245 0.42675,-0.426746"
       id="path4676"
       inkscape:connector-curvature="0" />
  </g>
</svg>
