<?xml version="1.0" encoding="UTF-8" standalone="no"?>
<!-- Created with Inkscape (http://www.inkscape.org/) -->

<svg
   xmlns:dc="http://purl.org/dc/elements/1.1/"
   xmlns:cc="http://creativecommons.org/ns#"
   xmlns:rdf="http://www.w3.org/1999/02/22-rdf-syntax-ns#"
   xmlns:svg="http://www.w3.org/2000/svg"
   xmlns="http://www.w3.org/2000/svg"
   xmlns:sodipodi="http://sodipodi.sourceforge.net/DTD/sodipodi-0.dtd"
   xmlns:inkscape="http://www.inkscape.org/namespaces/inkscape"
   width="377.95276"
   height="377.95276"
   viewBox="0 0 100 100"
   version="1.1"
   id="svg8"
   inkscape:version="0.92.2 (5c3e80d, 2017-08-06)"
   sodipodi:docname="123.svg">
  <defs
     id="defs2" />
  <sodipodi:namedview
     id="base"
     pagecolor="#ffffff"
     bordercolor="#666666"
     borderopacity="1.0"
     inkscape:pageopacity="0.0"
     inkscape:pageshadow="2"
     inkscape:zoom="1.7250919"
     inkscape:cx="233.57664"
     inkscape:cy="172.84671"
     inkscape:document-units="mm"
     inkscape:current-layer="layer1"
     showgrid="false"
     units="px"
     inkscape:window-width="1920"
     inkscape:window-height="1057"
     inkscape:window-x="0"
     inkscape:window-y="27"
     inkscape:window-maximized="1" />
  <metadata
     id="metadata5">
    <rdf:RDF>
      <cc:Work
         rdf:about="">
        <dc:format>image/svg+xml</dc:format>
        <dc:type
           rdf:resource="http://purl.org/dc/dcmitype/StillImage" />
        <dc:title></dc:title>
      </cc:Work>
    </rdf:RDF>
  </metadata>
  <g
     inkscape:label="Layer 1"
     inkscape:groupmode="layer"
     id="layer1"
     transform="translate(0,-197)">
    <g
       aria-label="1"
       style="font-style:normal;font-variant:normal;font-weight:300;font-stretch:normal;font-size:47.15581131px;line-height:1.25;font-family:Lato;-inkscape-font-specification:'Lato, Light';font-variant-ligatures:normal;font-variant-caps:normal;font-variant-numeric:normal;font-feature-settings:normal;text-align:start;letter-spacing:0px;word-spacing:0px;writing-mode:lr-tb;text-anchor:start;fill:#000000;fill-opacity:1;stroke:none;stroke-width:2.18529773px;stroke-linecap:butt;stroke-linejoin:miter;stroke-opacity:1"
       id="text821">
      <path
         d="m 28.106248,241.50548 v 1.74476 H 10.894377 v -1.74476 h 7.662819 v -27.06744 q 0,-0.80165 0.07073,-1.69761 l -7.356306,6.53108 q -0.330091,0.28294 -0.660182,0.21221 -0.33009,-0.0707 -0.518714,-0.28294 l -0.683759,-0.94312 9.643363,-8.51162 h 1.768343 v 31.75944 z"
         style="stroke-width:2.18529773px"
         id="path841" />
    </g>
    <g
       aria-label="2"
       style="font-style:normal;font-variant:normal;font-weight:300;font-stretch:normal;font-size:47.15581131px;line-height:1.25;font-family:Lato;-inkscape-font-specification:'Lato, Light';font-variant-ligatures:normal;font-variant-caps:normal;font-variant-numeric:normal;font-feature-settings:normal;text-align:start;letter-spacing:0px;word-spacing:0px;writing-mode:lr-tb;text-anchor:start;fill:#000000;fill-opacity:1;stroke:none;stroke-width:2.18529773px;stroke-linecap:butt;stroke-linejoin:miter;stroke-opacity:1"
       id="use823">
      <path
         d="m 56.562979,255.85208 q 0.377247,0 0.589448,0.23578 0.212201,0.2122 0.212201,0.56587 v 1.32036 H 35.838 v -0.80165 q 0,-0.25936 0.11789,-0.51871 0.141467,-0.28294 0.353668,-0.47156 l 11.388129,-11.5296 q 1.414674,-1.43825 2.617147,-2.78219 1.202474,-1.34394 2.074856,-2.71146 0.89596,-1.36752 1.391096,-2.80577 0.495137,-1.43825 0.495137,-3.06513 0,-1.83907 -0.613026,-3.18301 -0.613026,-1.36752 -1.626876,-2.2399 -1.013849,-0.87239 -2.35779,-1.29679 -1.343941,-0.4244 -2.782193,-0.4244 -1.57972,0 -2.92366,0.49513 -1.320363,0.47156 -2.357791,1.34394 -1.01385,0.84881 -1.697609,2.05128 -0.660181,1.1789 -0.919538,2.59357 -0.165046,0.51872 -0.447981,0.68376 -0.259357,0.16505 -0.730915,0.11789 l -1.155317,-0.18862 q 0.306513,-2.14559 1.178895,-3.81962 0.872383,-1.67403 2.216323,-2.82935 1.343941,-1.15532 3.112284,-1.74477 1.768343,-0.61302 3.819621,-0.61302 1.90981,0 3.630997,0.56587 1.744765,0.54229 3.065128,1.67403 1.34394,1.10816 2.122011,2.80577 0.778071,1.67403 0.778071,3.93751 0,1.88623 -0.589447,3.51311 -0.56587,1.6033 -1.556142,3.0887 -0.990272,1.48541 -2.310635,2.90009 -1.296785,1.39109 -2.735037,2.85292 l -10.445012,10.65722 q 0.754493,-0.18863 1.556142,-0.28294 0.825226,-0.0943 1.650453,-0.0943 z"
         style="stroke-width:2.18529773px"
         id="path838" />
    </g>
    <g
       aria-label="3"
       style="font-style:normal;font-variant:normal;font-weight:300;font-stretch:normal;font-size:47.15581131px;line-height:1.25;font-family:Lato;-inkscape-font-specification:'Lato, Light';font-variant-ligatures:normal;font-variant-caps:normal;font-variant-numeric:normal;font-feature-settings:normal;text-align:start;letter-spacing:0px;word-spacing:0px;writing-mode:lr-tb;text-anchor:start;fill:#000000;fill-opacity:1;stroke:none;stroke-width:2.18529773px;stroke-linecap:butt;stroke-linejoin:miter;stroke-opacity:1"
       id="use829">
      <path
         d="m 69.473243,255.78677 q 0.306513,-2.14559 1.178895,-3.81962 0.872383,-1.67404 2.216323,-2.82935 1.343941,-1.15532 3.112284,-1.74477 1.768343,-0.61302 3.819621,-0.61302 1.90981,0 3.607419,0.54229 1.697609,0.51871 2.970816,1.57972 1.296785,1.061 2.0277,2.64072 0.754493,1.57972 0.754493,3.65458 0,1.62687 -0.495136,2.94724 -0.495136,1.29678 -1.391096,2.28705 -0.872383,0.99028 -2.074856,1.67403 -1.202473,0.66019 -2.617147,1.01385 3.678153,0.68376 5.540807,2.85293 1.886233,2.14559 1.886233,5.37576 0,2.05128 -0.825227,3.81962 -0.825227,1.74477 -2.263479,3.01798 -1.438252,1.2732 -3.395218,2.00412 -1.956966,0.70734 -4.244023,0.70734 -2.852927,0 -4.762737,-0.7545 -1.886233,-0.77807 -3.112284,-2.00412 -1.226051,-1.22605 -1.90981,-2.73504 -0.683759,-1.53256 -1.108162,-3.04155 l 0.895961,-0.37724 q 0.377246,-0.16505 0.778071,-0.0943 0.424402,0.0707 0.613025,0.54229 0.11789,0.28293 0.306513,0.89596 0.212201,0.58945 0.589448,1.32036 0.377246,0.73092 0.966694,1.50899 0.613025,0.75449 1.508986,1.39109 0.919538,0.63661 2.192745,1.03743 1.273207,0.40083 3.017972,0.40083 2.122011,0 3.701731,-0.70734 1.603298,-0.70734 2.664303,-1.79192 1.084584,-1.10816 1.603298,-2.45211 0.542292,-1.36751 0.542292,-2.64072 0,-1.53256 -0.495136,-2.85293 -0.471558,-1.32036 -1.603298,-2.26348 -1.131739,-0.96669 -2.994394,-1.50898 -1.839076,-0.56587 -4.550536,-0.56587 v -1.62688 q 2.169168,-0.0471 3.819621,-0.56587 1.650453,-0.54229 2.758615,-1.46183 1.108162,-0.91954 1.674031,-2.19274 0.56587,-1.27321 0.56587,-2.80577 0,-1.76835 -0.589448,-3.06513 -0.589447,-1.29679 -1.579719,-2.14559 -0.990272,-0.8488 -2.310635,-1.24963 -1.320363,-0.40082 -2.758615,-0.40082 -1.57972,0 -2.92366,0.49513 -1.343941,0.47156 -2.381369,1.34394 -1.01385,0.84881 -1.697609,2.05128 -0.683759,1.1789 -0.943116,2.59357 -0.141468,0.51871 -0.400825,0.68376 -0.259357,0.16505 -0.730915,0.11789 z"
         style="stroke-width:2.18529773px"
         id="path835" />
    </g>
  </g>
</svg>
