<?xml version="1.0" encoding="UTF-8" standalone="no"?>
<!DOCTYPE svg PUBLIC "-//W3C//DTD SVG 1.1//EN"
 "http://www.w3.org/Graphics/SVG/1.1/DTD/svg11.dtd">
<!-- Generated by graphviz version 6.0.1 (0)
 -->
<!-- Pages: 1 -->
<svg width="250pt" height="260pt"
 viewBox="0.00 0.00 250.00 260.00" xmlns="http://www.w3.org/2000/svg" xmlns:xlink="http://www.w3.org/1999/xlink">
<g id="graph0" class="graph" transform="scale(1 1) rotate(0) translate(4 256)">
<polygon fill="none" stroke="none" points="-4,4 -4,-256 246,-256 246,4 -4,4"/>
<g id="clust1" class="cluster">
<title>cluster_x</title>
<polygon fill="none" stroke="#f75f5f" stroke-dasharray="5,2" points="8,-64 8,-207 78,-207 78,-64 8,-64"/>
<text text-anchor="middle" x="43" y="-195" font-family="sans" font-size="10.00" fill="#f75f5f">case: x</text>
</g>
<g id="clust2" class="cluster">
<title>cluster_y</title>
<polygon fill="none" stroke="#f0c84b" stroke-dasharray="5,2" points="86,-64 86,-207 156,-207 156,-64 86,-64"/>
<text text-anchor="middle" x="121" y="-195" font-family="sans" font-size="10.00" fill="#f0c84b">case: y</text>
</g>
<g id="clust3" class="cluster">
<title>cluster_z</title>
<polygon fill="none" stroke="#64c77e" stroke-dasharray="5,2" points="164,-64 164,-207 234,-207 234,-64 164,-64"/>
<text text-anchor="middle" x="199" y="-195" font-family="sans" font-size="10.00" fill="#64c77e">case: z</text>
</g>
<!-- a -->
<g id="node1" class="node">
<title>a</title>
<ellipse fill="none" stroke="black" cx="121" cy="-234" rx="27" ry="18"/>
<text text-anchor="middle" x="121" y="-230.3" font-family="sans" font-size="14.00">a</text>
</g>
<!-- x1 -->
<g id="node2" class="node">
<title>x1</title>
<ellipse fill="none" stroke="black" cx="43" cy="-162" rx="27" ry="18"/>
<text text-anchor="middle" x="43" y="-158.3" font-family="sans" font-size="14.00">x1</text>
</g>
<!-- a&#45;&gt;x1 -->
<g id="edge1" class="edge">
<title>a&#45;&gt;x1</title>
<path fill="none" stroke="black" d="M101.24,-221.24C94.85,-217.07 87.89,-212.13 82,-207 74.92,-200.83 67.89,-193.41 61.79,-186.44"/>
<polygon fill="black" stroke="black" points="64.25,-183.93 55.11,-178.56 58.91,-188.45 64.25,-183.93"/>
</g>
<!-- y1 -->
<g id="node5" class="node">
<title>y1</title>
<ellipse fill="none" stroke="black" cx="121" cy="-162" rx="27" ry="18"/>
<text text-anchor="middle" x="121" y="-158.3" font-family="sans" font-size="14.00">y1</text>
</g>
<!-- a&#45;&gt;y1 -->
<g id="edge4" class="edge">
<title>a&#45;&gt;y1</title>
<path fill="none" stroke="black" d="M121,-215.7C121,-207.98 121,-198.71 121,-190.11"/>
<polygon fill="black" stroke="black" points="124.5,-190.1 121,-180.1 117.5,-190.1 124.5,-190.1"/>
</g>
<!-- z1 -->
<g id="node7" class="node">
<title>z1</title>
<ellipse fill="none" stroke="black" cx="199" cy="-162" rx="27" ry="18"/>
<text text-anchor="middle" x="199" y="-158.3" font-family="sans" font-size="14.00">z1</text>
</g>
<!-- a&#45;&gt;z1 -->
<g id="edge7" class="edge">
<title>a&#45;&gt;z1</title>
<path fill="none" stroke="black" d="M140.76,-221.24C147.15,-217.07 154.11,-212.13 160,-207 167.08,-200.83 174.11,-193.41 180.21,-186.44"/>
<polygon fill="black" stroke="black" points="183.09,-188.45 186.89,-178.56 177.75,-183.93 183.09,-188.45"/>
</g>
<!-- x2 -->
<g id="node3" class="node">
<title>x2</title>
<ellipse fill="none" stroke="black" cx="43" cy="-90" rx="27" ry="18"/>
<text text-anchor="middle" x="43" y="-86.3" font-family="sans" font-size="14.00">x2</text>
</g>
<!-- x1&#45;&gt;x2 -->
<g id="edge2" class="edge">
<title>x1&#45;&gt;x2</title>
<path fill="none" stroke="black" d="M43,-143.7C43,-135.98 43,-126.71 43,-118.11"/>
<polygon fill="black" stroke="black" points="46.5,-118.1 43,-108.1 39.5,-118.1 46.5,-118.1"/>
</g>
<!-- b -->
<g id="node4" class="node">
<title>b</title>
<ellipse fill="none" stroke="black" cx="121" cy="-18" rx="27" ry="18"/>
<text text-anchor="middle" x="121" y="-14.3" font-family="sans" font-size="14.00">b</text>
</g>
<!-- x2&#45;&gt;b -->
<g id="edge3" class="edge">
<title>x2&#45;&gt;b</title>
<path fill="none" stroke="black" d="M58.41,-75.17C69.73,-65.01 85.31,-51.03 98.09,-39.56"/>
<polygon fill="black" stroke="black" points="100.52,-42.09 105.62,-32.8 95.84,-36.88 100.52,-42.09"/>
</g>
<!-- y2 -->
<g id="node6" class="node">
<title>y2</title>
<ellipse fill="none" stroke="black" cx="121" cy="-90" rx="27" ry="18"/>
<text text-anchor="middle" x="121" y="-86.3" font-family="sans" font-size="14.00">y2</text>
</g>
<!-- y1&#45;&gt;y2 -->
<g id="edge5" class="edge">
<title>y1&#45;&gt;y2</title>
<path fill="none" stroke="black" d="M121,-143.7C121,-135.98 121,-126.71 121,-118.11"/>
<polygon fill="black" stroke="black" points="124.5,-118.1 121,-108.1 117.5,-118.1 124.5,-118.1"/>
</g>
<!-- y2&#45;&gt;b -->
<g id="edge6" class="edge">
<title>y2&#45;&gt;b</title>
<path fill="none" stroke="black" d="M121,-71.7C121,-63.98 121,-54.71 121,-46.11"/>
<polygon fill="black" stroke="black" points="124.5,-46.1 121,-36.1 117.5,-46.1 124.5,-46.1"/>
</g>
<!-- z2 -->
<g id="node8" class="node">
<title>z2</title>
<ellipse fill="none" stroke="black" cx="199" cy="-90" rx="27" ry="18"/>
<text text-anchor="middle" x="199" y="-86.3" font-family="sans" font-size="14.00">z2</text>
</g>
<!-- z1&#45;&gt;z2 -->
<g id="edge8" class="edge">
<title>z1&#45;&gt;z2</title>
<path fill="none" stroke="black" d="M199,-143.7C199,-135.98 199,-126.71 199,-118.11"/>
<polygon fill="black" stroke="black" points="202.5,-118.1 199,-108.1 195.5,-118.1 202.5,-118.1"/>
</g>
<!-- z2&#45;&gt;b -->
<g id="edge9" class="edge">
<title>z2&#45;&gt;b</title>
<path fill="none" stroke="black" d="M183.59,-75.17C172.27,-65.01 156.69,-51.03 143.91,-39.56"/>
<polygon fill="black" stroke="black" points="146.16,-36.88 136.38,-32.8 141.48,-42.09 146.16,-36.88"/>
</g>
</g>
</svg>
