<?xml version="1.0" encoding="UTF-8" standalone="no"?>
<!DOCTYPE svg PUBLIC "-//W3C//DTD SVG 1.1//EN"
 "http://www.w3.org/Graphics/SVG/1.1/DTD/svg11.dtd">
<!-- Generated by graphviz version 2.30.1 (20170916.1124)
 -->
<!-- Title: %3 Pages: 1 -->
<svg width="64pt" height="72pt"
 viewBox="0.00 0.00 64.28 72.00" xmlns="http://www.w3.org/2000/svg" xmlns:xlink="http://www.w3.org/1999/xlink">
<g id="graph0" class="graph" transform="scale(0.137931 0.137931) rotate(0) translate(4 518)">
<title>%3</title>
<polygon fill="none" stroke="none" points="-4,5 -4,-518 463,-518 463,5 -4,5"/>
<g id="clust1" class="cluster"><title>cluster_1</title>
</g>
<g id="clust2" class="cluster"><title>cluster_2</title>
</g>
<g id="clust3" class="cluster"><title>cluster_3</title>
</g>
<!-- a1 -->
<g id="node1" class="node"><title>a1</title>
<ellipse fill="#ff5966" stroke="none" cx="115" cy="-435" rx="26.3078" ry="26.7407"/>
<text text-anchor="middle" x="115" y="-438.8" font-family="sans" font-size="14.00" fill="#333333">a</text>
<text text-anchor="middle" x="115" y="-423.8" font-family="sans" font-size="14.00" font-weight="bold" fill="#333333">1</text>
</g>
<!-- b1 -->
<g id="node2" class="node"><title>b1</title>
<ellipse fill="#00c697" stroke="none" cx="43" cy="-329" rx="26.3078" ry="26.7407"/>
<text text-anchor="middle" x="43" y="-332.8" font-family="sans" font-size="14.00" fill="#333333">b</text>
<text text-anchor="middle" x="43" y="-317.8" font-family="sans" font-size="14.00" font-weight="bold" fill="#333333">1</text>
</g>
<!-- a1&#45;&gt;b1 -->
<g id="edge2" class="edge"><title>a1&#45;&gt;b1</title>
<path fill="none" stroke="#555555" d="M94.7094,-417.104C89.2193,-411.955 83.5451,-406.048 79,-400 69.8155,-387.779 61.7836,-372.872 55.6508,-359.96"/>
<polygon fill="#555555" stroke="#555555" points="57.4008,-358.743 52.9693,-354.185 53.5914,-360.511 57.4008,-358.743"/>
</g>
<!-- c1 -->
<g id="node3" class="node"><title>c1</title>
<ellipse fill="#00b3fd" stroke="none" cx="115" cy="-329" rx="26.3078" ry="26.7407"/>
<text text-anchor="middle" x="115" y="-332.8" font-family="sans" font-size="14.00" fill="#333333">c</text>
<text text-anchor="middle" x="115" y="-317.8" font-family="sans" font-size="14.00" font-weight="bold" fill="#333333">1</text>
</g>
<!-- a1&#45;&gt;c1 -->
<g id="edge3" class="edge"><title>a1&#45;&gt;c1</title>
<path fill="none" stroke="#555555" d="M115,-408.025C115,-394.127 115,-376.887 115,-362.15"/>
<polygon fill="#555555" stroke="#555555" points="117.1,-362.005 115,-356.005 112.9,-362.005 117.1,-362.005"/>
</g>
<!-- a2 -->
<g id="node5" class="node"><title>a2</title>
<ellipse fill="#ff5966" stroke="none" cx="229" cy="-329" rx="26.3078" ry="26.7407"/>
<text text-anchor="middle" x="229" y="-332.8" font-family="sans" font-size="14.00" fill="#333333">a</text>
<text text-anchor="middle" x="229" y="-317.8" font-family="sans" font-size="14.00" font-weight="bold" fill="#333333">2</text>
</g>
<!-- a1&#45;&gt;a2 -->
<g id="edge10" class="edge"><title>a1&#45;&gt;a2</title>
<path fill="none" stroke="#555555" d="M134.955,-416.832C141.101,-411.483 147.864,-405.535 154,-400 171.498,-384.215 190.944,-366.048 205.649,-352.177"/>
<polygon fill="#555555" stroke="#555555" points="207.133,-353.664 210.053,-348.018 204.249,-350.611 207.133,-353.664"/>
</g>
<!-- d1 -->
<g id="node4" class="node"><title>d1</title>
<ellipse fill="#ffcc00" stroke="none" cx="115" cy="-223" rx="26.3078" ry="26.7407"/>
<text text-anchor="middle" x="115" y="-226.8" font-family="sans" font-size="14.00" fill="#333333">d</text>
<text text-anchor="middle" x="115" y="-211.8" font-family="sans" font-size="14.00" font-weight="bold" fill="#333333">1</text>
</g>
<!-- c1&#45;&gt;d1 -->
<g id="edge1" class="edge"><title>c1&#45;&gt;d1</title>
<path fill="none" stroke="#555555" d="M115,-302.025C115,-288.127 115,-270.887 115,-256.15"/>
<polygon fill="#555555" stroke="#555555" points="117.1,-256.005 115,-250.005 112.9,-256.005 117.1,-256.005"/>
</g>
<!-- b2 -->
<g id="node6" class="node"><title>b2</title>
<ellipse fill="#00c697" stroke="none" cx="193" cy="-223" rx="26.3078" ry="26.7407"/>
<text text-anchor="middle" x="193" y="-226.8" font-family="sans" font-size="14.00" fill="#333333">b</text>
<text text-anchor="middle" x="193" y="-211.8" font-family="sans" font-size="14.00" font-weight="bold" fill="#333333">2</text>
</g>
<!-- c1&#45;&gt;b2 -->
<g id="edge12" class="edge"><title>c1&#45;&gt;b2</title>
<path fill="none" stroke="#555555" d="M135.7,-312.267C142.013,-306.887 148.684,-300.56 154,-294 164.04,-281.611 172.908,-266.283 179.64,-253.131"/>
<polygon fill="#555555" stroke="#555555" points="181.58,-253.948 182.392,-247.643 177.826,-252.065 181.58,-253.948"/>
</g>
<!-- a2&#45;&gt;b2 -->
<g id="edge5" class="edge"><title>a2&#45;&gt;b2</title>
<path fill="none" stroke="#555555" d="M220.469,-303.353C215.402,-288.718 208.937,-270.041 203.552,-254.483"/>
<polygon fill="#555555" stroke="#555555" points="205.417,-253.453 201.47,-248.47 201.449,-254.827 205.417,-253.453"/>
</g>
<!-- c2 -->
<g id="node7" class="node"><title>c2</title>
<ellipse fill="#00b3fd" stroke="none" cx="265" cy="-223" rx="26.3078" ry="26.7407"/>
<text text-anchor="middle" x="265" y="-226.8" font-family="sans" font-size="14.00" fill="#333333">c</text>
<text text-anchor="middle" x="265" y="-211.8" font-family="sans" font-size="14.00" font-weight="bold" fill="#333333">2</text>
</g>
<!-- a2&#45;&gt;c2 -->
<g id="edge6" class="edge"><title>a2&#45;&gt;c2</title>
<path fill="none" stroke="#555555" d="M237.531,-303.353C242.598,-288.718 249.063,-270.041 254.448,-254.483"/>
<polygon fill="#555555" stroke="#555555" points="256.551,-254.827 256.53,-248.47 252.583,-253.453 256.551,-254.827"/>
</g>
<!-- a3 -->
<g id="node9" class="node"><title>a3</title>
<ellipse fill="#ff5966" stroke="none" cx="343" cy="-223" rx="26.3078" ry="26.7407"/>
<text text-anchor="middle" x="343" y="-226.8" font-family="sans" font-size="14.00" fill="#333333">a</text>
<text text-anchor="middle" x="343" y="-211.8" font-family="sans" font-size="14.00" font-weight="bold" fill="#333333">3</text>
</g>
<!-- a2&#45;&gt;a3 -->
<g id="edge11" class="edge"><title>a2&#45;&gt;a3</title>
<path fill="none" stroke="#555555" d="M254.262,-321.035C270.017,-315.682 289.906,-306.975 304,-294 315.822,-283.118 324.915,-267.806 331.335,-254.277"/>
<polygon fill="#555555" stroke="#555555" points="333.342,-254.936 333.923,-248.606 329.522,-253.192 333.342,-254.936"/>
</g>
<!-- d2 -->
<g id="node8" class="node"><title>d2</title>
<ellipse fill="#ffcc00" stroke="none" cx="265" cy="-133" rx="26.3078" ry="26.7407"/>
<text text-anchor="middle" x="265" y="-136.8" font-family="sans" font-size="14.00" fill="#333333">d</text>
<text text-anchor="middle" x="265" y="-121.8" font-family="sans" font-size="14.00" font-weight="bold" fill="#333333">2</text>
</g>
<!-- c2&#45;&gt;d2 -->
<g id="edge4" class="edge"><title>c2&#45;&gt;d2</title>
<path fill="none" stroke="#555555" d="M265,-196.073C265,-186.668 265,-175.93 265,-166.06"/>
<polygon fill="#555555" stroke="#555555" points="267.1,-166.046 265,-160.046 262.9,-166.046 267.1,-166.046"/>
</g>
<!-- b3 -->
<g id="node10" class="node"><title>b3</title>
<ellipse fill="#00c697" stroke="none" cx="343" cy="-133" rx="26.3078" ry="26.7407"/>
<text text-anchor="middle" x="343" y="-136.8" font-family="sans" font-size="14.00" fill="#333333">b</text>
<text text-anchor="middle" x="343" y="-121.8" font-family="sans" font-size="14.00" font-weight="bold" fill="#333333">3</text>
</g>
<!-- c2&#45;&gt;b3 -->
<g id="edge13" class="edge"><title>c2&#45;&gt;b3</title>
<path fill="none" stroke="#555555" d="M282.311,-202.47C293.924,-189.368 309.299,-172.021 321.668,-158.067"/>
<polygon fill="#555555" stroke="#555555" points="323.329,-159.359 325.738,-153.475 320.186,-156.573 323.329,-159.359"/>
</g>
<!-- a3&#45;&gt;b3 -->
<g id="edge8" class="edge"><title>a3&#45;&gt;b3</title>
<path fill="none" stroke="#555555" d="M343,-196.073C343,-186.668 343,-175.93 343,-166.06"/>
<polygon fill="#555555" stroke="#555555" points="345.1,-166.046 343,-160.046 340.9,-166.046 345.1,-166.046"/>
</g>
<!-- c3 -->
<g id="node11" class="node"><title>c3</title>
<ellipse fill="#00b3fd" stroke="none" cx="415" cy="-133" rx="26.3078" ry="26.7407"/>
<text text-anchor="middle" x="415" y="-136.8" font-family="sans" font-size="14.00" fill="#333333">c</text>
<text text-anchor="middle" x="415" y="-121.8" font-family="sans" font-size="14.00" font-weight="bold" fill="#333333">3</text>
</g>
<!-- a3&#45;&gt;c3 -->
<g id="edge9" class="edge"><title>a3&#45;&gt;c3</title>
<path fill="none" stroke="#555555" d="M359.699,-201.59C370.059,-188.928 383.446,-172.566 394.454,-159.112"/>
<polygon fill="#555555" stroke="#555555" points="396.217,-160.273 398.391,-154.299 392.967,-157.613 396.217,-160.273"/>
</g>
<!-- d3 -->
<g id="node12" class="node"><title>d3</title>
<ellipse fill="#ffcc00" stroke="none" cx="415" cy="-43" rx="26.3078" ry="26.7407"/>
<text text-anchor="middle" x="415" y="-46.8" font-family="sans" font-size="14.00" fill="#333333">d</text>
<text text-anchor="middle" x="415" y="-31.8" font-family="sans" font-size="14.00" font-weight="bold" fill="#333333">3</text>
</g>
<!-- c3&#45;&gt;d3 -->
<g id="edge7" class="edge"><title>c3&#45;&gt;d3</title>
<path fill="none" stroke="#555555" d="M415,-106.073C415,-96.6684 415,-85.9305 415,-76.0598"/>
<polygon fill="#555555" stroke="#555555" points="417.1,-76.0457 415,-70.0457 412.9,-76.0458 417.1,-76.0457"/>
</g>
</g>
</svg>
