<?xml version="1.0" encoding="UTF-8" standalone="no"?>
<!-- Generated by graphviz version 2.30.1 (20170916.1124)
 -->

<!-- Title: %3 Pages: 1 -->

<svg
   xmlns:dc="http://purl.org/dc/elements/1.1/"
   xmlns:cc="http://creativecommons.org/ns#"
   xmlns:rdf="http://www.w3.org/1999/02/22-rdf-syntax-ns#"
   xmlns:svg="http://www.w3.org/2000/svg"
   xmlns="http://www.w3.org/2000/svg"
   xmlns:sodipodi="http://sodipodi.sourceforge.net/DTD/sodipodi-0.dtd"
   xmlns:inkscape="http://www.inkscape.org/namespaces/inkscape"
   width="466pt"
   height="310pt"
   viewBox="0.00 0.00 466.00 310.00"
   version="1.1"
   id="svg199"
   sodipodi:docname="repeating-workflow1b.svg"
   inkscape:version="0.92.2 (5c3e80d, 2017-08-06)">
  <metadata
     id="metadata205">
    <rdf:RDF>
      <cc:Work
         rdf:about="">
        <dc:format>image/svg+xml</dc:format>
        <dc:type
           rdf:resource="http://purl.org/dc/dcmitype/StillImage" />
        <dc:title />
      </cc:Work>
    </rdf:RDF>
  </metadata>
  <defs
     id="defs203" />
  <sodipodi:namedview
     pagecolor="#ffffff"
     bordercolor="#666666"
     borderopacity="1"
     objecttolerance="10"
     gridtolerance="10"
     guidetolerance="10"
     inkscape:pageopacity="0"
     inkscape:pageshadow="2"
     inkscape:window-width="1920"
     inkscape:window-height="981"
     id="namedview201"
     showgrid="false"
     inkscape:zoom="1.3480649"
     inkscape:cx="47.17049"
     inkscape:cy="205.18306"
     inkscape:window-x="0"
     inkscape:window-y="28"
     inkscape:window-maximized="1"
     inkscape:current-layer="svg199" />
  <polygon
     style="fill:none;stroke:none"
     id="polygon4"
     points="463,-306 463,5 -4,5 -4,-306 "
     transform="translate(4,306)" />
  <g
     class="cluster"
     id="clust1"
     transform="translate(4,306)">
    <title
       id="title6">cluster_1</title>
    <polygon
       style="fill:none;stroke:#000000;stroke-dasharray:5, 2"
       id="polygon8"
       points="150,-294 150,-8 8,-8 8,-294 " />
    <text
       style="font-size:25px;font-family:sans;text-anchor:middle"
       id="text10"
       font-size="25.00"
       y="-270"
       x="79">1</text>
  </g>
  <g
     class="cluster"
     id="clust2"
     transform="translate(4,306)">
    <title
       id="title13">cluster_2</title>
    <polygon
       style="fill:none;stroke:#000000;stroke-dasharray:5, 2"
       id="polygon15"
       points="300,-294 300,-8 158,-8 158,-294 " />
    <text
       style="font-size:25px;font-family:sans;text-anchor:middle"
       id="text17"
       font-size="25.00"
       y="-270"
       x="229">2</text>
  </g>
  <g
     id="g1126">
    <ellipse
       style="fill:#ff5966;stroke:none"
       id="ellipse29"
       ry="26.7407"
       rx="26.3078"
       cy="83"
       cx="83" />
    <text
       style="font-size:14px;font-family:sans;text-anchor:middle;fill:#333333"
       id="text31"
       font-size="14.00"
       y="79.199997"
       x="83">a</text>
  </g>
  <g
     id="g1159">
    <ellipse
       style="fill:#00c697;stroke:none"
       id="ellipse38"
       ry="26.7407"
       rx="26.3078"
       cy="173"
       cx="47" />
    <text
       style="font-size:14px;font-family:sans;text-anchor:middle;fill:#333333"
       id="text40"
       font-size="14.00"
       y="169.2"
       x="47">b</text>
  </g>
  <g
     class="edge"
     id="edge2"
     transform="translate(4,306)">
    <title
       id="title45">a1-&gt;b1</title>
    <path
       style="fill:none;stroke:#555555"
       inkscape:connector-curvature="0"
       id="path47"
       d="m 69.1628,-197.954 c -4.3256,10.574 -9.4492,23.098 -14.0106,34.249" />
    <polygon
       style="fill:#555555;stroke:#555555"
       id="polygon49"
       points="53.1535,-164.366 57.0408,-162.775 52.8253,-158.017 " />
  </g>
  <g
     id="g1166">
    <ellipse
       style="fill:#00b3fd;stroke:none"
       id="ellipse54"
       ry="26.7407"
       rx="26.3078"
       cy="173"
       cx="119" />
    <text
       style="font-size:14px;font-family:sans;text-anchor:middle;fill:#333333"
       id="text56"
       font-size="14.00"
       y="169.2"
       x="119">c</text>
  </g>
  <g
     class="edge"
     id="edge3"
     transform="translate(4,306)">
    <title
       id="title61">a1-&gt;c1</title>
    <path
       style="fill:none;stroke:#555555"
       inkscape:connector-curvature="0"
       id="path63"
       d="m 88.8372,-197.954 c 4.3256,10.574 9.4492,23.098 14.0108,34.249" />
    <polygon
       style="fill:#555555;stroke:#555555"
       id="polygon65"
       points="100.959,-162.775 104.847,-164.366 105.175,-158.017 " />
  </g>
  <g
     id="g1197">
    <ellipse
       style="fill:#ffcc00;stroke:none"
       id="ellipse70"
       ry="26.7407"
       rx="26.3078"
       cy="263"
       cx="119" />
    <text
       style="font-size:14px;font-family:sans;text-anchor:middle;fill:#333333"
       id="text72"
       font-size="14.00"
       y="259.20001"
       x="119">d</text>
  </g>
  <g
     class="edge"
     id="edge1"
     transform="translate(4,306)">
    <title
       id="title77">c1-&gt;d1</title>
    <path
       style="fill:none;stroke:#555555"
       inkscape:connector-curvature="0"
       id="path79"
       d="m 115,-106.073 c 0,9.4046 0,20.1425 0,30.0132" />
    <polygon
       style="fill:#555555;stroke:#555555"
       id="polygon81"
       points="112.9,-76.0458 117.1,-76.0457 115,-70.0457 " />
  </g>
  <g
     id="g1133">
    <ellipse
       style="fill:#ff5966;stroke:none"
       id="ellipse86"
       ry="26.7407"
       rx="26.3078"
       cy="83"
       cx="233" />
    <text
       style="font-size:14px;font-family:sans;text-anchor:middle;fill:#333333"
       id="text88"
       font-size="14.00"
       y="79.199997"
       x="233">a</text>
  </g>
  <g
     id="g1180">
    <ellipse
       style="fill:#00c697;stroke:none"
       id="ellipse95"
       ry="26.7407"
       rx="26.3078"
       cy="173"
       cx="197" />
    <text
       style="font-size:14px;font-family:sans;text-anchor:middle;fill:#333333"
       id="text97"
       font-size="14.00"
       y="169.2"
       x="197">b</text>
  </g>
  <g
     class="edge"
     id="edge5"
     transform="translate(4,306)">
    <title
       id="title102">a2-&gt;b2</title>
    <path
       style="fill:none;stroke:#555555"
       inkscape:connector-curvature="0"
       id="path104"
       d="m 219.163,-197.954 c -4.326,10.574 -9.449,23.098 -14.011,34.249" />
    <polygon
       style="fill:#555555;stroke:#555555"
       id="polygon106"
       points="203.153,-164.366 207.041,-162.775 202.825,-158.017 " />
  </g>
  <g
     id="g1176">
    <ellipse
       style="fill:#00b3fd;stroke:none"
       id="ellipse111"
       ry="26.7407"
       rx="26.3078"
       cy="173"
       cx="269" />
    <text
       style="font-size:14px;font-family:sans;text-anchor:middle;fill:#333333"
       id="text113"
       font-size="14.00"
       y="169.2"
       x="269">c</text>
  </g>
  <g
     class="edge"
     id="edge6"
     transform="translate(4,306)">
    <title
       id="title118">a2-&gt;c2</title>
    <path
       style="fill:none;stroke:#555555"
       inkscape:connector-curvature="0"
       id="path120"
       d="m 238.837,-197.954 c 4.326,10.574 9.449,23.098 14.011,34.249" />
    <polygon
       style="fill:#555555;stroke:#555555"
       id="polygon122"
       points="250.959,-162.775 254.847,-164.366 255.175,-158.017 " />
  </g>
  <g
     id="g1228">
    <ellipse
       style="fill:#ffcc00;stroke:none"
       id="ellipse127"
       ry="26.7407"
       rx="26.3078"
       cy="263"
       cx="269" />
    <text
       style="font-size:14px;font-family:sans;text-anchor:middle;fill:#333333"
       id="text129"
       font-size="14.00"
       y="259.20001"
       x="269">d</text>
  </g>
  <g
     class="edge"
     id="edge4"
     transform="translate(4,306)">
    <title
       id="title134">c2-&gt;d2</title>
    <path
       style="fill:none;stroke:#555555"
       inkscape:connector-curvature="0"
       id="path136"
       d="m 265,-106.073 c 0,9.4046 0,20.1425 0,30.0132" />
    <polygon
       style="fill:#555555;stroke:#555555"
       id="polygon138"
       points="262.9,-76.0458 267.1,-76.0457 265,-70.0457 " />
  </g>
  <g
     id="g5999"
     style="opacity:0.506"
     transform="translate(1.5)">
    <g
       transform="translate(223.63638,-14.067116)"
       id="g5691">
      <path
         style="opacity:1;fill:#ffffff;fill-opacity:1;stroke:#000000;stroke-width:2.86815429;stroke-linecap:butt;stroke-linejoin:round;stroke-miterlimit:4;stroke-dasharray:none;stroke-dashoffset:0;stroke-opacity:1"
         id="path5586"
         sodipodi:type="arc"
         sodipodi:cx="-92.439362"
         sodipodi:cy="47.217999"
         sodipodi:rx="19.745859"
         sodipodi:ry="19.745859"
         sodipodi:start="0"
         sodipodi:end="6.2495877"
         sodipodi:open="true"
         d="M -72.693502,47.217999 A 19.745859,19.745859 0 0 1 -92.27351,66.963161 19.745859,19.745859 0 0 1 -112.18243,47.54969 19.745859,19.745859 0 0 1 -92.936869,27.478408 19.745859,19.745859 0 0 1 -72.704646,46.55471" />
      <path
         style="opacity:1;fill:#030000;fill-opacity:1;stroke:none;stroke-width:4.79496336;stroke-linecap:butt;stroke-linejoin:round;stroke-miterlimit:4;stroke-dasharray:none;stroke-dashoffset:0;stroke-opacity:1"
         id="path5632"
         sodipodi:type="arc"
         sodipodi:cx="-92.554581"
         sodipodi:cy="47.543907"
         sodipodi:rx="4.0870776"
         sodipodi:ry="4.0870776"
         sodipodi:start="0"
         sodipodi:end="6.2495877"
         sodipodi:open="true"
         d="m -88.467503,47.543907 a 4.0870776,4.0870776 0 0 1 -4.052749,4.086934 4.0870776,4.0870776 0 0 1 -4.12083,-4.018279 4.0870776,4.0870776 0 0 1 3.983525,-4.154435 4.0870776,4.0870776 0 0 1 4.187747,3.94849" />
      <path
         style="fill:none;stroke:#000000;stroke-width:3;stroke-linecap:round;stroke-linejoin:miter;stroke-miterlimit:4;stroke-dasharray:none;stroke-opacity:1"
         d="m -96.24908,47.123179 h 19.75054"
         id="path5634"
         inkscape:connector-curvature="0" />
      <path
         style="fill:none;stroke:#000000;stroke-width:3;stroke-linecap:round;stroke-linejoin:miter;stroke-miterlimit:4;stroke-dasharray:none;stroke-opacity:1"
         d="m -92.732876,51.155139 -0.356169,-19.74732"
         id="path5634-2"
         inkscape:connector-curvature="0" />
    </g>
    <g
       transform="translate(371.74617,-83.174779)"
       id="g5697">
      <path
         style="opacity:1;fill:#ffffff;fill-opacity:1;stroke:#000000;stroke-width:2.86815429;stroke-linecap:butt;stroke-linejoin:round;stroke-miterlimit:4;stroke-dasharray:none;stroke-dashoffset:0;stroke-opacity:1"
         id="path5586-7"
         sodipodi:type="arc"
         sodipodi:cx="-89.850998"
         sodipodi:cy="116.38918"
         sodipodi:rx="19.745859"
         sodipodi:ry="19.745859"
         sodipodi:start="0"
         sodipodi:end="6.2495877"
         sodipodi:open="true"
         d="m -70.105139,116.38918 a 19.745859,19.745859 0 0 1 -19.580007,19.74517 19.745859,19.745859 0 0 1 -19.908924,-19.41348 19.745859,19.745859 0 0 1 19.245565,-20.071278 19.745859,19.745859 0 0 1 20.232223,19.076298" />
      <path
         style="opacity:1;fill:#030000;fill-opacity:1;stroke:none;stroke-width:4.79496336;stroke-linecap:butt;stroke-linejoin:round;stroke-miterlimit:4;stroke-dasharray:none;stroke-dashoffset:0;stroke-opacity:1"
         id="path5632-7"
         sodipodi:type="arc"
         sodipodi:cx="-89.966217"
         sodipodi:cy="116.71509"
         sodipodi:rx="4.0870776"
         sodipodi:ry="4.0870776"
         sodipodi:start="0"
         sodipodi:end="6.2495877"
         sodipodi:open="true"
         d="m -85.879139,116.71509 a 4.0870776,4.0870776 0 0 1 -4.052749,4.08693 4.0870776,4.0870776 0 0 1 -4.12083,-4.01828 4.0870776,4.0870776 0 0 1 3.983525,-4.15443 4.0870776,4.0870776 0 0 1 4.187747,3.94849" />
      <path
         style="fill:none;stroke:#000000;stroke-width:3;stroke-linecap:round;stroke-linejoin:miter;stroke-miterlimit:4;stroke-dasharray:none;stroke-opacity:1"
         d="m -93.074626,114.14088 14.68389,13.2086"
         id="path5634-4"
         inkscape:connector-curvature="0"
         inkscape:transform-center-x="0.55635306"
         inkscape:transform-center-y="-0.55635306" />
      <path
         style="fill:none;stroke:#000000;stroke-width:3;stroke-linecap:round;stroke-linejoin:miter;stroke-miterlimit:4;stroke-dasharray:none;stroke-opacity:1"
         d="M -90.144511,120.32632 -90.50068,100.579"
         id="path5634-2-2"
         inkscape:connector-curvature="0" />
    </g>
  </g>
</svg>
