<?xml version="1.0" encoding="UTF-8" standalone="no"?>
<!-- Created with Inkscape (http://www.inkscape.org/) -->

<svg
   xmlns:osb="http://www.openswatchbook.org/uri/2009/osb"
   xmlns:dc="http://purl.org/dc/elements/1.1/"
   xmlns:cc="http://creativecommons.org/ns#"
   xmlns:rdf="http://www.w3.org/1999/02/22-rdf-syntax-ns#"
   xmlns:svg="http://www.w3.org/2000/svg"
   xmlns="http://www.w3.org/2000/svg"
   xmlns:sodipodi="http://sodipodi.sourceforge.net/DTD/sodipodi-0.dtd"
   xmlns:inkscape="http://www.inkscape.org/namespaces/inkscape"
   width="2000px"
   height="2500px"
   viewBox="0 0 2000 2500"
   version="1.1"
   id="SVGRoot"
   sodipodi:docname="GraphQL.svg"
   inkscape:version="0.92.4 (f8dce91, 2019-08-02)"
   inkscape:export-filename="/home/sutherlander/cylc/cylc-misc/workshop2020/data-provision/GraphQL.png"
   inkscape:export-xdpi="96"
   inkscape:export-ydpi="96">
  <defs
     id="defs4597">
    <linearGradient
       id="linearGradient5338"
       osb:paint="solid">
      <stop
         style="stop-color:#000000;stop-opacity:1;"
         offset="0"
         id="stop5336" />
    </linearGradient>
    <linearGradient
       id="linearGradient5332"
       osb:paint="solid">
      <stop
         style="stop-color:#00b4fd;stop-opacity:1;"
         offset="0"
         id="stop5330" />
    </linearGradient>
    <linearGradient
       id="linearGradient5324"
       osb:paint="solid">
      <stop
         style="stop-color:#000000;stop-opacity:1;"
         offset="0"
         id="stop5322" />
    </linearGradient>
  </defs>
  <sodipodi:namedview
     id="base"
     pagecolor="#ffffff"
     bordercolor="#666666"
     borderopacity="1.0"
     inkscape:pageopacity="0.0"
     inkscape:pageshadow="2"
     inkscape:zoom="0.35"
     inkscape:cx="333.79931"
     inkscape:cy="1304.7262"
     inkscape:document-units="px"
     inkscape:current-layer="layer1"
     showgrid="false"
     inkscape:window-width="1850"
     inkscape:window-height="1016"
     inkscape:window-x="70"
     inkscape:window-y="27"
     inkscape:window-maximized="1"
     inkscape:snap-bbox="false"
     inkscape:snap-text-baseline="false" />
  <metadata
     id="metadata4600">
    <rdf:RDF>
      <cc:Work
         rdf:about="">
        <dc:format>image/svg+xml</dc:format>
        <dc:type
           rdf:resource="http://purl.org/dc/dcmitype/StillImage" />
        <dc:title />
      </cc:Work>
    </rdf:RDF>
  </metadata>
  <g
     inkscape:label="Layer 1"
     inkscape:groupmode="layer"
     id="layer1"
     style="display:inline">
    <rect
       style="fill:#0dc66e;fill-opacity:1;stroke:#000000;stroke-width:1.32192624;stroke-opacity:1;stroke-linejoin:round"
       id="rect4610"
       width="719.6781"
       height="325.39233"
       x="467.3038"
       y="1780.1608" />
    <path
       sodipodi:type="star"
       style="fill:#ffcc00;fill-opacity:1;stroke:#000000;stroke-opacity:1;stroke-width:0.99939168;stroke-miterlimit:4;stroke-dasharray:none;stroke-linejoin:round"
       id="path5205"
       sodipodi:sides="6"
       sodipodi:cx="837.14288"
       sodipodi:cy="1328.5714"
       sodipodi:r1="175.60471"
       sodipodi:r2="97.184868"
       sodipodi:arg1="3.127991"
       sodipodi:arg2="3.6515898"
       inkscape:flatsided="true"
       inkscape:rounded="0"
       inkscape:randomized="0"
       d="m 661.55442,1330.9599 85.72578,-153.2583 175.58846,-2.3885 89.86264,150.8699 -85.72574,153.2583 -175.58846,2.3884 z"
       transform="matrix(2.1260688,0.03272553,-0.03292994,2.1393487,-930.00763,-2241.0464)" />
    <path
       sodipodi:type="star"
       style="fill:#808080;fill-opacity:1;stroke:#000000;stroke-opacity:1;stroke-linejoin:round"
       id="path5209"
       sodipodi:sides="4"
       sodipodi:cx="802.85712"
       sodipodi:cy="642.85712"
       sodipodi:r1="129.29953"
       sodipodi:r2="217.29318"
       sodipodi:arg1="0.78539816"
       sodipodi:arg2="1.5707963"
       inkscape:flatsided="true"
       inkscape:rounded="0"
       inkscape:randomized="0"
       d="m 894.28569,734.28569 -182.85715,0 0,-182.85715 182.85715,0 z"
       transform="matrix(2.4384032,0,0,1,-840.46395,154.28571)" />
    <flowRoot
       xml:space="preserve"
       id="flowRoot5221"
       style="font-style:normal;font-weight:normal;font-size:40px;line-height:1.25;font-family:sans-serif;letter-spacing:0px;word-spacing:0px;fill:#000000;fill-opacity:1;stroke:none"><flowRegion
         id="flowRegion5223"><rect
           id="rect5225"
           width="57.142857"
           height="45.714287"
           x="311.42856"
           y="191.42857" /></flowRegion><flowPara
         id="flowPara5227">WUI</flowPara><flowPara
         id="flowPara5229" /></flowRoot>    <path
       sodipodi:type="star"
       style="fill:#808080;fill-opacity:1;stroke:#000000;stroke-opacity:1;stroke-linejoin:round"
       id="path5209-2"
       sodipodi:sides="4"
       sodipodi:cx="802.85712"
       sodipodi:cy="642.85712"
       sodipodi:r1="129.29953"
       sodipodi:r2="217.29318"
       sodipodi:arg1="0.78539816"
       sodipodi:arg2="1.5707963"
       inkscape:flatsided="true"
       inkscape:rounded="0"
       inkscape:randomized="0"
       d="m 894.28569,734.28569 -182.85715,0 0,-182.85715 182.85715,0 z"
       transform="matrix(2.4384032,0,0,1,-834.83221,1291.4286)" />
    <g
       aria-label="GraphQL"
       transform="matrix(1.6891755,0,0,1.7380712,-883.19391,-518.57143)"
       style="font-style:normal;font-weight:normal;font-size:40px;line-height:1.25;font-family:sans-serif;letter-spacing:0px;word-spacing:0px;fill:#000000;fill-opacity:1;stroke:none"
       id="flowRoot5278">
      <path
         d="m 1112.3809,759.80273 v -7.83203 h -6.4454 v -3.24218 h 10.3516 v 12.51953 q -2.2851,1.62109 -5.0391,2.46093 -2.7539,0.82032 -5.8789,0.82032 -6.8359,0 -10.7031,-3.98438 -3.8476,-4.0039 -3.8476,-11.13281 0,-7.14844 3.8476,-11.13281 3.8672,-4.00391 10.7031,-4.00391 2.8516,0 5.4102,0.70313 2.5781,0.70312 4.7461,2.07031 v 4.19922 q -2.1875,-1.85547 -4.6484,-2.79297 -2.461,-0.9375 -5.1758,-0.9375 -5.3516,0 -8.0469,2.98828 -2.6758,2.98828 -2.6758,8.90625 0,5.89844 2.6758,8.88672 2.6953,2.98828 8.0469,2.98828 2.0898,0 3.7304,-0.35156 1.6407,-0.3711 2.9493,-1.13282 z"
         style=""
         id="path4790" />
      <path
         d="m 1136.0332,745.44727 q -0.6055,-0.35157 -1.3281,-0.50782 -0.7031,-0.17578 -1.5625,-0.17578 -3.0469,0 -4.6875,1.99219 -1.6211,1.97266 -1.6211,5.68359 v 11.52344 h -3.6133 v -21.875 h 3.6133 v 3.39844 q 1.1328,-1.99219 2.9492,-2.94922 1.8164,-0.97656 4.4141,-0.97656 0.3711,0 0.8203,0.0586 0.4492,0.0391 0.9961,0.13672 z"
         style=""
         id="path4792" />
      <path
         d="m 1149.7832,752.9668 q -4.3555,0 -6.0352,0.99609 -1.6796,0.99609 -1.6796,3.39844 0,1.91406 1.25,3.04687 1.2695,1.11328 3.4375,1.11328 2.9882,0 4.7851,-2.10937 1.8164,-2.12891 1.8164,-5.64453 v -0.80078 z m 7.168,-1.48438 v 12.48047 h -3.5938 v -3.32031 q -1.2304,1.99219 -3.0664,2.94922 -1.8359,0.9375 -4.4922,0.9375 -3.3593,0 -5.3515,-1.875 -1.9727,-1.89453 -1.9727,-5.0586 0,-3.6914 2.4609,-5.5664 2.4805,-1.875 7.3829,-1.875 h 5.039 v -0.35157 q 0,-2.48046 -1.6406,-3.82812 -1.6211,-1.36719 -4.5703,-1.36719 -1.875,0 -3.6524,0.44922 -1.7773,0.44922 -3.4179,1.34766 v -3.32032 q 1.9726,-0.76171 3.8281,-1.13281 1.8555,-0.39062 3.6133,-0.39062 4.7461,0 7.0898,2.46093 2.3438,2.46094 2.3438,7.46094 z"
         style=""
         id="path4794" />
      <path
         d="m 1167.8496,760.68164 v 11.60156 h -3.6133 v -30.19531 h 3.6133 v 3.32031 q 1.1328,-1.95312 2.8516,-2.89062 1.7383,-0.95703 4.1406,-0.95703 3.9844,0 6.4648,3.16406 2.5,3.16406 2.5,8.32031 0,5.15625 -2.5,8.32031 -2.4804,3.16407 -6.4648,3.16407 -2.4023,0 -4.1406,-0.9375 -1.7188,-0.95703 -2.8516,-2.91016 z m 12.2266,-7.63672 q 0,-3.96484 -1.6407,-6.21094 -1.621,-2.26562 -4.4726,-2.26562 -2.8516,0 -4.4922,2.26562 -1.6211,2.2461 -1.6211,6.21094 0,3.96485 1.6211,6.23047 1.6406,2.24609 4.4922,2.24609 2.8516,0 4.4726,-2.24609 1.6407,-2.26562 1.6407,-6.23047 z"
         style=""
         id="path4796" />
      <path
         d="m 1207.9473,750.75977 v 13.20312 h -3.5938 v -13.08594 q 0,-3.10547 -1.2109,-4.64843 -1.211,-1.54297 -3.6328,-1.54297 -2.9102,0 -4.5899,1.85547 -1.6797,1.85546 -1.6797,5.05859 v 12.36328 h -3.6132 v -30.39062 h 3.6132 v 11.91406 q 1.2891,-1.97266 3.0274,-2.94922 1.7578,-0.97656 4.0429,-0.97656 3.7696,0 5.7032,2.34375 1.9336,2.32422 1.9336,6.85547 z"
         style=""
         id="path4798" />
      <path
         d="m 1227.1465,737.47852 q -4.2969,0 -6.836,3.20312 -2.5195,3.20313 -2.5195,8.73047 0,5.50781 2.5195,8.71094 2.5391,3.20312 6.836,3.20312 4.2969,0 6.7969,-3.20312 2.5195,-3.20313 2.5195,-8.71094 0,-5.52734 -2.5195,-8.73047 -2.5,-3.20312 -6.7969,-3.20312 z m 5.5273,25.95703 5.1953,5.68359 h -4.7656 l -4.3164,-4.66797 q -0.6445,0.0391 -0.9961,0.0586 -0.332,0.0195 -0.6445,0.0195 -6.1524,0 -9.8438,-4.10157 -3.6718,-4.12109 -3.6718,-11.01562 0,-6.91406 3.6718,-11.01563 3.6914,-4.12109 9.8438,-4.12109 6.1328,0 9.8047,4.12109 3.6718,4.10157 3.6718,11.01563 0,5.07812 -2.0507,8.69141 -2.0313,3.61328 -5.8985,5.33203 z"
         style=""
         id="path4800" />
      <path
         d="m 1246.7949,734.80273 h 3.9453 v 25.83985 h 14.1993 v 3.32031 h -18.1446 z"
         style=""
         id="path4802" />
    </g>
    <g
       id="g4743">
      <g
         aria-label="GraphQL"
         transform="matrix(1.6891755,0,0,1.7380712,-889.64419,625.6437)"
         style="font-style:normal;font-weight:normal;font-size:40px;line-height:1.25;font-family:sans-serif;letter-spacing:0px;word-spacing:0px;fill:#000000;fill-opacity:1;stroke:none"
         id="flowRoot5278-9">
        <path
           d="m 1112.3809,759.80273 v -7.83203 h -6.4454 v -3.24218 h 10.3516 v 12.51953 q -2.2851,1.62109 -5.0391,2.46093 -2.7539,0.82032 -5.8789,0.82032 -6.8359,0 -10.7031,-3.98438 -3.8476,-4.0039 -3.8476,-11.13281 0,-7.14844 3.8476,-11.13281 3.8672,-4.00391 10.7031,-4.00391 2.8516,0 5.4102,0.70313 2.5781,0.70312 4.7461,2.07031 v 4.19922 q -2.1875,-1.85547 -4.6484,-2.79297 -2.461,-0.9375 -5.1758,-0.9375 -5.3516,0 -8.0469,2.98828 -2.6758,2.98828 -2.6758,8.90625 0,5.89844 2.6758,8.88672 2.6953,2.98828 8.0469,2.98828 2.0898,0 3.7304,-0.35156 1.6407,-0.3711 2.9493,-1.13282 z"
           style=""
           id="path4825" />
        <path
           d="m 1136.0332,745.44727 q -0.6055,-0.35157 -1.3281,-0.50782 -0.7031,-0.17578 -1.5625,-0.17578 -3.0469,0 -4.6875,1.99219 -1.6211,1.97266 -1.6211,5.68359 v 11.52344 h -3.6133 v -21.875 h 3.6133 v 3.39844 q 1.1328,-1.99219 2.9492,-2.94922 1.8164,-0.97656 4.4141,-0.97656 0.3711,0 0.8203,0.0586 0.4492,0.0391 0.9961,0.13672 z"
           style=""
           id="path4827" />
        <path
           d="m 1149.7832,752.9668 q -4.3555,0 -6.0352,0.99609 -1.6796,0.99609 -1.6796,3.39844 0,1.91406 1.25,3.04687 1.2695,1.11328 3.4375,1.11328 2.9882,0 4.7851,-2.10937 1.8164,-2.12891 1.8164,-5.64453 v -0.80078 z m 7.168,-1.48438 v 12.48047 h -3.5938 v -3.32031 q -1.2304,1.99219 -3.0664,2.94922 -1.8359,0.9375 -4.4922,0.9375 -3.3593,0 -5.3515,-1.875 -1.9727,-1.89453 -1.9727,-5.0586 0,-3.6914 2.4609,-5.5664 2.4805,-1.875 7.3829,-1.875 h 5.039 v -0.35157 q 0,-2.48046 -1.6406,-3.82812 -1.6211,-1.36719 -4.5703,-1.36719 -1.875,0 -3.6524,0.44922 -1.7773,0.44922 -3.4179,1.34766 v -3.32032 q 1.9726,-0.76171 3.8281,-1.13281 1.8555,-0.39062 3.6133,-0.39062 4.7461,0 7.0898,2.46093 2.3438,2.46094 2.3438,7.46094 z"
           style=""
           id="path4829" />
        <path
           d="m 1167.8496,760.68164 v 11.60156 h -3.6133 v -30.19531 h 3.6133 v 3.32031 q 1.1328,-1.95312 2.8516,-2.89062 1.7383,-0.95703 4.1406,-0.95703 3.9844,0 6.4648,3.16406 2.5,3.16406 2.5,8.32031 0,5.15625 -2.5,8.32031 -2.4804,3.16407 -6.4648,3.16407 -2.4023,0 -4.1406,-0.9375 -1.7188,-0.95703 -2.8516,-2.91016 z m 12.2266,-7.63672 q 0,-3.96484 -1.6407,-6.21094 -1.621,-2.26562 -4.4726,-2.26562 -2.8516,0 -4.4922,2.26562 -1.6211,2.2461 -1.6211,6.21094 0,3.96485 1.6211,6.23047 1.6406,2.24609 4.4922,2.24609 2.8516,0 4.4726,-2.24609 1.6407,-2.26562 1.6407,-6.23047 z"
           style=""
           id="path4831" />
        <path
           d="m 1207.9473,750.75977 v 13.20312 h -3.5938 v -13.08594 q 0,-3.10547 -1.2109,-4.64843 -1.211,-1.54297 -3.6328,-1.54297 -2.9102,0 -4.5899,1.85547 -1.6797,1.85546 -1.6797,5.05859 v 12.36328 h -3.6132 v -30.39062 h 3.6132 v 11.91406 q 1.2891,-1.97266 3.0274,-2.94922 1.7578,-0.97656 4.0429,-0.97656 3.7696,0 5.7032,2.34375 1.9336,2.32422 1.9336,6.85547 z"
           style=""
           id="path4833" />
        <path
           d="m 1227.1465,737.47852 q -4.2969,0 -6.836,3.20312 -2.5195,3.20313 -2.5195,8.73047 0,5.50781 2.5195,8.71094 2.5391,3.20312 6.836,3.20312 4.2969,0 6.7969,-3.20312 2.5195,-3.20313 2.5195,-8.71094 0,-5.52734 -2.5195,-8.73047 -2.5,-3.20312 -6.7969,-3.20312 z m 5.5273,25.95703 5.1953,5.68359 h -4.7656 l -4.3164,-4.66797 q -0.6445,0.0391 -0.9961,0.0586 -0.332,0.0195 -0.6445,0.0195 -6.1524,0 -9.8438,-4.10157 -3.6718,-4.12109 -3.6718,-11.01562 0,-6.91406 3.6718,-11.01563 3.6914,-4.12109 9.8438,-4.12109 6.1328,0 9.8047,4.12109 3.6718,4.10157 3.6718,11.01563 0,5.07812 -2.0507,8.69141 -2.0313,3.61328 -5.8985,5.33203 z"
           style=""
           id="path4835" />
        <path
           d="m 1246.7949,734.80273 h 3.9453 v 25.83985 h 14.1993 v 3.32031 h -18.1446 z"
           style=""
           id="path4837" />
      </g>
    </g>
    <path
       sodipodi:type="star"
       style="fill:none;fill-opacity:1;stroke:#00b4fd;stroke-width:9.31099987;stroke-miterlimit:4;stroke-dasharray:none;stroke-opacity:1;stroke-linejoin:round"
       id="path5320"
       sodipodi:sides="3"
       sodipodi:cx="1119.3297"
       sodipodi:cy="997.14282"
       sodipodi:r1="51.42857"
       sodipodi:r2="25.714287"
       sodipodi:arg1="-1.5707963"
       sodipodi:arg2="-0.52359878"
       inkscape:flatsided="true"
       inkscape:rounded="0"
       inkscape:randomized="0"
       d="m 1119.3297,945.71425 44.5385,77.14285 -89.0769,0 z"
       inkscape:transform-center-y="-12.857143" />
    <rect
       style="fill:none;fill-opacity:1;stroke:#00b4fd;stroke-width:1.24664104;stroke-miterlimit:4;stroke-dasharray:none;stroke-opacity:1;stroke-linejoin:round"
       id="rect5328"
       width="7.0547175"
       height="54.450394"
       x="1116.1376"
       y="1054.7749" />
    <rect
       style="fill:none;fill-opacity:1;stroke:#00b4fd;stroke-width:1.24664104;stroke-miterlimit:4;stroke-dasharray:none;stroke-opacity:1;stroke-linejoin:round"
       id="rect5328-4"
       width="7.0547175"
       height="54.450394"
       x="1117.0441"
       y="1237.632" />
    <rect
       style="fill:none;fill-opacity:1;stroke:#00b4fd;stroke-width:1.24664104;stroke-miterlimit:4;stroke-dasharray:none;stroke-opacity:1;stroke-linejoin:round"
       id="rect5328-6"
       width="7.0547175"
       height="54.450394"
       x="1116.4727"
       y="1145.3463" />
    <rect
       style="fill:none;fill-opacity:1;stroke:#00b4fd;stroke-width:1.24664104;stroke-miterlimit:4;stroke-dasharray:none;stroke-opacity:1;stroke-linejoin:round"
       id="rect5328-3"
       width="7.0547175"
       height="54.450394"
       x="1117.0441"
       y="1329.9177" />
    <rect
       style="fill:none;fill-opacity:1;stroke:#00b4fd;stroke-width:1.24664104;stroke-miterlimit:4;stroke-dasharray:none;stroke-opacity:1;stroke-linejoin:round"
       id="rect5328-4-9"
       width="7.0547175"
       height="54.450394"
       x="1117.2115"
       y="1503.2034" />
    <rect
       style="fill:none;fill-opacity:1;stroke:#00b4fd;stroke-width:1.24664104;stroke-miterlimit:4;stroke-dasharray:none;stroke-opacity:1;stroke-linejoin:round"
       id="rect5328-6-7"
       width="7.0547175"
       height="54.450394"
       x="1116.6401"
       y="1414.9177" />
    <rect
       style="fill:none;fill-opacity:1;stroke:#00b4fd;stroke-width:1.24664104;stroke-miterlimit:4;stroke-dasharray:none;stroke-opacity:1;stroke-linejoin:round"
       id="rect5328-3-4"
       width="7.0547175"
       height="54.450394"
       x="1117.2115"
       y="1593.4891" />
    <rect
       style="fill:none;fill-opacity:1;stroke:#00b4fd;stroke-width:1.24664104;stroke-miterlimit:4;stroke-dasharray:none;stroke-opacity:1;stroke-linejoin:round"
       id="rect5328-3-4-9"
       width="7.0547175"
       height="54.450394"
       x="1117.6155"
       y="1679.3463" />
    <flowRoot
       xml:space="preserve"
       id="flowRoot5408"
       style="font-style:normal;font-weight:normal;font-size:40px;line-height:1.25;font-family:sans-serif;letter-spacing:0px;word-spacing:0px;fill:#000000;fill-opacity:1;stroke:none"><flowRegion
         id="flowRegion5410"><rect
           id="rect5412"
           width="84.472656"
           height="52.20335"
           x="1255.5273"
           y="1269.2252" /></flowRegion><flowPara
         id="flowPara5414">ImporI</flowPara></flowRoot>    <g
       aria-label="Import"
       transform="matrix(0,1.0223371,-0.92376982,0,2353.9184,-22.099907)"
       style="font-style:normal;font-weight:normal;font-size:40px;line-height:1.25;font-family:sans-serif;letter-spacing:0px;word-spacing:0px;fill:#000000;fill-opacity:1;stroke:none"
       id="flowRoot5416">
      <path
         d="m 1306.7832,1279.0879 h 3.9453 v 29.1601 h -3.9453 z"
         style=""
         id="path4805" />
      <path
         d="m 1335.4551,1290.5723 q 1.3476,-2.4219 3.2226,-3.5743 1.875,-1.1523 4.4141,-1.1523 3.418,0 5.2734,2.4023 1.8555,2.3829 1.8555,6.7969 v 13.2031 h -3.6133 v -13.0859 q 0,-3.1445 -1.1133,-4.668 -1.1132,-1.5234 -3.3984,-1.5234 -2.793,0 -4.4141,1.8555 -1.6211,1.8554 -1.6211,5.0586 v 12.3632 h -3.6132 v -13.0859 q 0,-3.1641 -1.1133,-4.668 -1.1133,-1.5234 -3.4375,-1.5234 -2.7539,0 -4.375,1.875 -1.6211,1.8555 -1.6211,5.0391 v 12.3632 h -3.6133 v -21.875 h 3.6133 v 3.3985 q 1.2305,-2.0117 2.9492,-2.9688 1.7188,-0.957 4.082,-0.957 2.3829,0 4.043,1.2109 1.6797,1.211 2.4805,3.5157 z"
         style=""
         id="path4807" />
      <path
         d="m 1360.8848,1304.9668 v 11.6016 h -3.6133 v -30.1954 h 3.6133 v 3.3204 q 1.1328,-1.9532 2.8515,-2.8907 1.7383,-0.957 4.1407,-0.957 3.9843,0 6.4648,3.1641 2.5,3.164 2.5,8.3203 0,5.1562 -2.5,8.3203 -2.4805,3.1641 -6.4648,3.1641 -2.4024,0 -4.1407,-0.9375 -1.7187,-0.9571 -2.8515,-2.9102 z m 12.2265,-7.6367 q 0,-3.9649 -1.6406,-6.211 -1.6211,-2.2656 -4.4727,-2.2656 -2.8515,0 -4.4921,2.2656 -1.6211,2.2461 -1.6211,6.211 0,3.9648 1.6211,6.2304 1.6406,2.2461 4.4921,2.2461 2.8516,0 4.4727,-2.2461 1.6406,-2.2656 1.6406,-6.2304 z"
         style=""
         id="path4809" />
      <path
         d="m 1391.2754,1288.8926 q -2.8906,0 -4.5703,2.2656 -1.6797,2.2461 -1.6797,6.1719 0,3.9258 1.6601,6.1914 1.6797,2.2461 4.5899,2.2461 2.8711,0 4.5508,-2.2656 1.6797,-2.2657 1.6797,-6.1719 0,-3.8867 -1.6797,-6.1524 -1.6797,-2.2851 -4.5508,-2.2851 z m 0,-3.0469 q 4.6875,0 7.3633,3.0469 2.6758,3.0469 2.6758,8.4375 0,5.3711 -2.6758,8.4375 -2.6758,3.0469 -7.3633,3.0469 -4.707,0 -7.3828,-3.0469 -2.6563,-3.0664 -2.6563,-8.4375 0,-5.3906 2.6563,-8.4375 2.6758,-3.0469 7.3828,-3.0469 z"
         style=""
         id="path4811" />
      <path
         d="m 1419.9277,1289.7324 q -0.6054,-0.3515 -1.3281,-0.5078 -0.7031,-0.1758 -1.5625,-0.1758 -3.0469,0 -4.6875,1.9922 -1.6211,1.9727 -1.6211,5.6836 v 11.5234 h -3.6133 v -21.875 h 3.6133 v 3.3985 q 1.1328,-1.9922 2.9492,-2.9492 1.8164,-0.9766 4.4141,-0.9766 0.3711,0 0.8203,0.059 0.4492,0.039 0.9961,0.1367 z"
         style=""
         id="path4813" />
      <path
         d="m 1427.291,1280.1621 v 6.2109 h 7.4024 v 2.793 h -7.4024 v 11.875 q 0,2.6758 0.7227,3.4375 0.7422,0.7617 2.9883,0.7617 h 3.6914 v 3.0078 h -3.6914 q -4.1602,0 -5.7422,-1.5429 -1.5821,-1.5625 -1.5821,-5.6641 v -11.875 h -2.6367 v -2.793 h 2.6367 v -6.2109 z"
         style=""
         id="path4815" />
    </g>
    <path
       style="fill:none;stroke:#000000;stroke-width:1.0689764px;stroke-linecap:butt;stroke-linejoin:miter;stroke-opacity:1"
       d="m 1429.3609,768.59575 c 116.7171,2.4e-4 116.7171,2.4e-4 116.7171,2.4e-4 l 2.4473,1182.80791 h -125.6945"
       id="path5445"
       inkscape:connector-curvature="0"
       sodipodi:nodetypes="cccc" />
    <path
       style="fill:none;stroke:#000000;stroke-width:1px;stroke-linecap:butt;stroke-linejoin:miter;stroke-opacity:1"
       d="m 1548.5714,1357.1428 h 68.5714 -68.5714 v 0"
       id="path5447"
       inkscape:connector-curvature="0"
       sodipodi:nodetypes="cccc" />
    <g
       aria-label="CLI "
       transform="matrix(1.8183816,0,0,1.5666329,-1547.0141,-764.6824)"
       style="font-style:normal;font-weight:normal;font-size:40px;line-height:1.25;font-family:sans-serif;letter-spacing:0px;word-spacing:0px;fill:#000000;fill-opacity:1;stroke:none"
       id="flowRoot5449-3">
      <path
         d="m 1774.334,1342.7617 v 4.1602 q -1.9922,-1.8555 -4.2578,-2.7735 -2.2461,-0.9179 -4.7852,-0.9179 -5,0 -7.6562,3.0664 -2.6563,3.0469 -2.6563,8.8281 0,5.7617 2.6563,8.8281 2.6562,3.0469 7.6562,3.0469 2.5391,0 4.7852,-0.918 2.2656,-0.9179 4.2578,-2.7734 v 4.1211 q -2.0703,1.4062 -4.3945,2.1094 -2.3047,0.7031 -4.8829,0.7031 -6.6211,0 -10.4296,-4.043 -3.8086,-4.0625 -3.8086,-11.0742 0,-7.0312 3.8086,-11.0742 3.8085,-4.0625 10.4296,-4.0625 2.6172,0 4.9219,0.7031 2.3242,0.6836 4.3555,2.0703 z"
         id="path4818"
         inkscape:connector-curvature="0" />
      <path
         d="m 1780.4668,1340.5156 h 3.9453 v 25.8399 h 14.1992 v 3.3203 h -18.1445 z"
         id="path4820"
         inkscape:connector-curvature="0" />
      <path
         d="m 1802.7324,1340.5156 h 3.9453 v 29.1602 h -3.9453 z"
         id="path4822"
         inkscape:connector-curvature="0" />
    </g>
    <flowRoot
       xml:space="preserve"
       id="flowRoot910"
       style="font-style:normal;font-weight:normal;font-size:40px;line-height:1.25;font-family:sans-serif;letter-spacing:0px;word-spacing:0px;fill:#000000;fill-opacity:1;stroke:none"><flowRegion
         id="flowRegion912"><rect
           id="rect914"
           width="208.40628"
           height="205.71431"
           x="1340.1652"
           y="888.57141" /></flowRegion><flowPara
         id="flowPara916" /></flowRoot>    <a
       id="a913"
       transform="translate(0,8)">
      <g
         aria-label="WFS"
         transform="matrix(2.088432,0,0,1.9410375,-3099.1967,-698.61519)"
         style="font-style:normal;font-weight:normal;font-size:40px;line-height:1.25;font-family:sans-serif;letter-spacing:0px;word-spacing:0px;fill:#000000;fill-opacity:1;stroke:none"
         id="flowRoot5449-36">
        <path
           d="m 1749.9004,1340.5156 h 3.9844 l 6.1328,24.6485 6.1133,-24.6485 h 4.4336 l 6.1328,24.6485 6.1132,-24.6485 h 4.004 l -7.3243,29.1602 h -4.9609 l -6.1523,-25.3125 -6.211,25.3125 h -4.9609 z"
           id="path4623"
           inkscape:connector-curvature="0" />
        <path
           d="m 1792.0293,1340.5156 h 16.7578 v 3.3203 h -12.8125 v 8.5938 h 11.5625 v 3.3203 h -11.5625 v 13.9258 h -3.9453 z"
           id="path4625"
           inkscape:connector-curvature="0" />
        <path
           d="m 1831.8535,1341.4727 v 3.8476 q -2.2461,-1.0742 -4.2383,-1.6015 -1.9922,-0.5274 -3.8476,-0.5274 -3.2227,0 -4.9805,1.25 -1.7383,1.25 -1.7383,3.5547 0,1.9336 1.1524,2.9297 1.1718,0.9765 4.414,1.582 l 2.3828,0.4883 q 4.4141,0.8398 6.504,2.9687 2.1093,2.1094 2.1093,5.6641 0,4.2383 -2.8515,6.4258 -2.8321,2.1875 -8.3203,2.1875 -2.0704,0 -4.4141,-0.4688 -2.3242,-0.4687 -4.8242,-1.3867 v -4.0625 q 2.4023,1.3477 4.707,2.0313 2.3047,0.6836 4.5313,0.6836 3.3789,0 5.2148,-1.3282 1.8359,-1.3281 1.8359,-3.789 0,-2.1485 -1.3281,-3.3594 -1.3086,-1.2109 -4.3164,-1.8164 l -2.4023,-0.4688 q -4.4141,-0.8789 -6.3868,-2.7539 -1.9726,-1.875 -1.9726,-5.2148 0,-3.8672 2.7148,-6.0938 2.7344,-2.2265 7.5196,-2.2265 2.0507,0 4.1796,0.3711 2.129,0.3711 4.3555,1.1133 z"
           id="path4627"
           inkscape:connector-curvature="0" />
      </g>
    </a>
    <a
       id="a4745">
      <g
         aria-label="UI Server"
         transform="matrix(2.088432,0,0,1.9410375,-3103.4518,-2003.735)"
         style="font-style:normal;font-weight:normal;font-size:40px;line-height:1.25;font-family:sans-serif;letter-spacing:0px;word-spacing:0px;fill:#000000;fill-opacity:1;stroke:none"
         id="flowRoot5449">
        <path
           d="m 1752.0488,1340.5156 h 3.9649 v 17.7149 q 0,4.6875 1.6992,6.7578 1.6992,2.0508 5.5078,2.0508 3.7891,0 5.4883,-2.0508 1.6992,-2.0703 1.6992,-6.7578 v -17.7149 h 3.9648 v 18.2032 q 0,5.7031 -2.832,8.6132 -2.8125,2.9102 -8.3203,2.9102 -5.5273,0 -8.3594,-2.9102 -2.8125,-2.9101 -2.8125,-8.6132 z"
           style=""
           id="path4773" />
        <path
           d="m 1781.7949,1340.5156 h 3.9453 v 29.1602 h -3.9453 z"
           style=""
           id="path4775" />
        <path
           d="m 1823.8066,1341.4727 v 3.8476 q -2.2461,-1.0742 -4.2382,-1.6015 -1.9922,-0.5274 -3.8477,-0.5274 -3.2227,0 -4.9805,1.25 -1.7382,1.25 -1.7382,3.5547 0,1.9336 1.1523,2.9297 1.1719,0.9765 4.4141,1.582 l 2.3828,0.4883 q 4.414,0.8398 6.5039,2.9687 2.1094,2.1094 2.1094,5.6641 0,4.2383 -2.8516,6.4258 -2.832,2.1875 -8.3203,2.1875 -2.0703,0 -4.4141,-0.4688 -2.3242,-0.4687 -4.8242,-1.3867 v -4.0625 q 2.4023,1.3477 4.707,2.0313 2.3047,0.6836 4.5313,0.6836 3.3789,0 5.2148,-1.3282 1.836,-1.3281 1.836,-3.789 0,-2.1485 -1.3282,-3.3594 -1.3086,-1.2109 -4.3164,-1.8164 l -2.4023,-0.4688 q -4.4141,-0.8789 -6.3867,-2.7539 -1.9727,-1.875 -1.9727,-5.2148 0,-3.8672 2.7149,-6.0938 2.7343,-2.2265 7.5195,-2.2265 2.0508,0 4.1797,0.3711 2.1289,0.3711 4.3554,1.1133 z"
           style=""
           id="path4777" />
        <path
           d="m 1850.2715,1357.8398 v 1.7579 h -16.5235 q 0.2344,3.7109 2.2266,5.664 2.0117,1.9336 5.5859,1.9336 2.0704,0 4.004,-0.5078 1.9531,-0.5078 3.8671,-1.5234 v 3.3984 q -1.9336,0.8203 -3.9648,1.25 -2.0313,0.4297 -4.1211,0.4297 -5.2344,0 -8.3008,-3.0469 -3.0469,-3.0469 -3.0469,-8.2422 0,-5.3711 2.8907,-8.5156 2.9101,-3.1641 7.832,-3.1641 4.4141,0 6.9727,2.8516 2.5781,2.832 2.5781,7.7148 z m -3.5938,-1.0546 q -0.039,-2.9493 -1.6601,-4.7071 -1.6016,-1.7578 -4.2578,-1.7578 -3.0078,0 -4.8243,1.6992 -1.7968,1.6993 -2.0703,4.7852 z"
           style=""
           id="path4779" />
        <path
           d="m 1868.8457,1351.1602 q -0.6055,-0.3516 -1.3281,-0.5079 -0.7031,-0.1757 -1.5625,-0.1757 -3.0469,0 -4.6875,1.9922 -1.6211,1.9726 -1.6211,5.6835 v 11.5235 h -3.6133 v -21.875 h 3.6133 v 3.3984 q 1.1328,-1.9922 2.9492,-2.9492 1.8164,-0.9766 4.4141,-0.9766 0.3711,0 0.8203,0.059 0.4492,0.039 0.9961,0.1368 z"
           style=""
           id="path4781" />
        <path
           d="m 1870.0762,1347.8008 h 3.8086 l 6.8359,18.3594 6.8359,-18.3594 h 3.8086 l -8.2031,21.875 h -4.8828 z"
           style=""
           id="path4783" />
        <path
           d="m 1915.0371,1357.8398 v 1.7579 h -16.5234 q 0.2343,3.7109 2.2265,5.664 2.0118,1.9336 5.586,1.9336 2.0703,0 4.0039,-0.5078 1.9531,-0.5078 3.8672,-1.5234 v 3.3984 q -1.9336,0.8203 -3.9649,1.25 -2.0312,0.4297 -4.1211,0.4297 -5.2343,0 -8.3008,-3.0469 -3.0468,-3.0469 -3.0468,-8.2422 0,-5.3711 2.8906,-8.5156 2.9102,-3.1641 7.832,-3.1641 4.4141,0 6.9727,2.8516 2.5781,2.832 2.5781,7.7148 z m -3.5937,-1.0546 q -0.039,-2.9493 -1.6602,-4.7071 -1.6016,-1.7578 -4.2578,-1.7578 -3.0078,0 -4.8242,1.6992 -1.7969,1.6993 -2.0703,4.7852 z"
           style=""
           id="path4785" />
        <path
           d="m 1933.6113,1351.1602 q -0.6054,-0.3516 -1.3281,-0.5079 -0.7031,-0.1757 -1.5625,-0.1757 -3.0469,0 -4.6875,1.9922 -1.6211,1.9726 -1.6211,5.6835 v 11.5235 h -3.6133 v -21.875 h 3.6133 v 3.3984 q 1.1328,-1.9922 2.9492,-2.9492 1.8164,-0.9766 4.4141,-0.9766 0.3711,0 0.8203,0.059 0.4492,0.039 0.9961,0.1368 z"
           style=""
           id="path4787" />
      </g>
    </a>
  </g>
</svg>
