<?xml version="1.0" encoding="UTF-8" standalone="no"?>
<!DOCTYPE svg PUBLIC "-//W3C//DTD SVG 1.1//EN"
 "http://www.w3.org/Graphics/SVG/1.1/DTD/svg11.dtd">
<!-- Generated by graphviz version 6.0.1 (0)
 -->
<!-- Pages: 1 -->
<svg width="134pt" height="332pt"
 viewBox="0.00 0.00 134.00 332.00" xmlns="http://www.w3.org/2000/svg" xmlns:xlink="http://www.w3.org/1999/xlink">
<g id="graph0" class="graph" transform="scale(1 1) rotate(0) translate(4 328)">
<polygon fill="none" stroke="none" points="-4,4 -4,-328 130,-328 130,4 -4,4"/>
<!-- a_1 -->
<g id="node1" class="node">
<title>a_1</title>
<ellipse fill="none" stroke="black" cx="63" cy="-306" rx="27" ry="18"/>
<text text-anchor="middle" x="63" y="-302.3" font-family="sans" font-size="14.00">a</text>
</g>
<!-- b_1 -->
<g id="node2" class="node">
<title>b_1</title>
<ellipse fill="none" stroke="black" cx="63" cy="-234" rx="27" ry="18"/>
<text text-anchor="middle" x="63" y="-230.3" font-family="sans" font-size="14.00">b</text>
</g>
<!-- a_1&#45;&gt;b_1 -->
<g id="edge1" class="edge">
<title>a_1&#45;&gt;b_1</title>
<path fill="none" stroke="black" d="M63,-287.7C63,-279.98 63,-270.71 63,-262.11"/>
<polygon fill="black" stroke="black" points="66.5,-262.1 63,-252.1 59.5,-262.1 66.5,-262.1"/>
</g>
<!-- b_1&#45;&gt;b_1 -->
<g id="edge6" class="edge">
<title>b_1&#45;&gt;b_1</title>
<path fill="none" stroke="blue" d="M82.9,-246.43C95.69,-249.68 108,-245.53 108,-234 108,-225.62 101.5,-221.14 93.04,-220.56"/>
<polygon fill="blue" stroke="blue" points="92.5,-217.1 82.9,-221.57 93.19,-224.07 92.5,-217.1"/>
</g>
<!-- d_1 -->
<g id="node3" class="node">
<title>d_1</title>
<ellipse fill="none" stroke="black" cx="27" cy="-162" rx="27" ry="18"/>
<text text-anchor="middle" x="27" y="-158.3" font-family="sans" font-size="14.00">d</text>
</g>
<!-- b_1&#45;&gt;d_1 -->
<g id="edge2" class="edge">
<title>b_1&#45;&gt;d_1</title>
<path fill="none" stroke="black" d="M54.65,-216.76C50.29,-208.28 44.85,-197.71 39.96,-188.2"/>
<polygon fill="black" stroke="black" points="42.99,-186.44 35.3,-179.15 36.77,-189.64 42.99,-186.44"/>
</g>
<!-- c_1 -->
<g id="node5" class="node">
<title>c_1</title>
<ellipse fill="none" stroke="black" cx="99" cy="-162" rx="27" ry="18"/>
<text text-anchor="middle" x="99" y="-158.3" font-family="sans" font-size="14.00">c</text>
</g>
<!-- b_1&#45;&gt;c_1 -->
<g id="edge4" class="edge">
<title>b_1&#45;&gt;c_1</title>
<path fill="none" stroke="black" d="M71.35,-216.76C75.71,-208.28 81.15,-197.71 86.04,-188.2"/>
<polygon fill="black" stroke="black" points="89.23,-189.64 90.7,-179.15 83.01,-186.44 89.23,-189.64"/>
</g>
<!-- f_1 -->
<g id="node4" class="node">
<title>f_1</title>
<ellipse fill="none" stroke="black" cx="27" cy="-90" rx="27" ry="18"/>
<text text-anchor="middle" x="27" y="-86.3" font-family="sans" font-size="14.00">f</text>
</g>
<!-- d_1&#45;&gt;f_1 -->
<g id="edge3" class="edge">
<title>d_1&#45;&gt;f_1</title>
<path fill="none" stroke="black" d="M27,-143.7C27,-135.98 27,-126.71 27,-118.11"/>
<polygon fill="black" stroke="black" points="30.5,-118.1 27,-108.1 23.5,-118.1 30.5,-118.1"/>
</g>
<!-- e_1 -->
<g id="node6" class="node">
<title>e_1</title>
<ellipse fill="none" stroke="black" cx="27" cy="-18" rx="27" ry="18"/>
<text text-anchor="middle" x="27" y="-14.3" font-family="sans" font-size="14.00">e</text>
</g>
<!-- f_1&#45;&gt;e_1 -->
<g id="edge7" class="edge">
<title>f_1&#45;&gt;e_1</title>
<path fill="none" stroke="blue" d="M21.16,-72.41C20.3,-64.51 20.05,-54.85 20.41,-45.94"/>
<polygon fill="blue" stroke="blue" points="23.9,-46.18 21.12,-35.96 16.92,-45.68 23.9,-46.18"/>
</g>
<!-- e_1&#45;&gt;f_1 -->
<g id="edge5" class="edge">
<title>e_1&#45;&gt;f_1</title>
<path fill="none" stroke="black" d="M32.88,-35.96C33.71,-43.83 33.95,-53.37 33.58,-62.19"/>
<polygon fill="black" stroke="black" points="30.07,-62.18 32.84,-72.41 37.06,-62.69 30.07,-62.18"/>
</g>
</g>
</svg>
