<?xml version="1.0" encoding="UTF-8" standalone="no"?>
<!DOCTYPE svg PUBLIC "-//W3C//DTD SVG 1.1//EN"
 "http://www.w3.org/Graphics/SVG/1.1/DTD/svg11.dtd">
<!-- Generated by graphviz version 6.0.1 (0)
 -->
<!-- Pages: 1 -->
<svg width="682pt" height="681pt"
 viewBox="0.00 0.00 682.00 681.00" xmlns="http://www.w3.org/2000/svg" xmlns:xlink="http://www.w3.org/1999/xlink">
<g id="graph0" class="graph" transform="scale(1 1) rotate(0) translate(4 677)">
<polygon fill="none" stroke="none" points="-4,4 -4,-677 678,-677 678,4 -4,4"/>
<g id="clust1" class="cluster">
<title>cluster_1</title>
<polygon fill="none" stroke="black" stroke-dasharray="5,2" points="8,-296 8,-665 222,-665 222,-296 8,-296"/>
<text text-anchor="middle" x="115" y="-649.8" font-family="sans" font-size="14.00">20230316T09</text>
</g>
<g id="clust2" class="cluster">
<title>cluster_2</title>
<polygon fill="none" stroke="black" stroke-dasharray="5,2" points="230,-152 230,-518 444,-518 444,-152 230,-152"/>
<text text-anchor="middle" x="337" y="-502.8" font-family="sans" font-size="14.00">20230317T09</text>
</g>
<g id="clust3" class="cluster">
<title>cluster_3</title>
<polygon fill="none" stroke="black" stroke-dasharray="5,2" points="452,-8 452,-371 666,-371 666,-8 452,-8"/>
<text text-anchor="middle" x="559" y="-355.8" font-family="sans" font-size="14.00">20230318T09</text>
</g>
<!-- clock_1 -->
<g id="node1" class="node">
<title>clock_1</title>
<text text-anchor="middle" x="168" y="-612.3" font-family="sans" font-size="14.00">@wall_clock</text>
</g>
<!-- a_1 -->
<g id="node2" class="node">
<title>a_1</title>
<ellipse fill="none" stroke="black" cx="173" cy="-544" rx="27" ry="18"/>
<text text-anchor="middle" x="173" y="-540.3" font-family="sans" font-size="14.00">a</text>
</g>
<!-- clock_1&#45;&gt;a_1 -->
<g id="edge1" class="edge">
<title>clock_1&#45;&gt;a_1</title>
<path fill="none" stroke="black" d="M169.24,-597.7C169.79,-589.98 170.45,-580.71 171.06,-572.11"/>
<polygon fill="black" stroke="black" points="174.56,-572.33 171.78,-562.1 167.57,-571.83 174.56,-572.33"/>
</g>
<!-- b_1 -->
<g id="node3" class="node">
<title>b_1</title>
<ellipse fill="none" stroke="black" cx="182" cy="-469" rx="27" ry="18"/>
<text text-anchor="middle" x="182" y="-465.3" font-family="sans" font-size="14.00">b</text>
</g>
<!-- a_1&#45;&gt;b_1 -->
<g id="edge2" class="edge">
<title>a_1&#45;&gt;b_1</title>
<path fill="none" stroke="black" d="M175.13,-525.7C176.18,-517.25 177.45,-506.87 178.63,-497.37"/>
<polygon fill="black" stroke="black" points="182.13,-497.53 179.88,-487.18 175.19,-496.67 182.13,-497.53"/>
</g>
<!-- c_1 -->
<g id="node4" class="node">
<title>c_1</title>
<ellipse fill="none" stroke="black" cx="115" cy="-397" rx="27" ry="18"/>
<text text-anchor="middle" x="115" y="-393.3" font-family="sans" font-size="14.00">c</text>
</g>
<!-- b_1&#45;&gt;c_1 -->
<g id="edge5" class="edge">
<title>b_1&#45;&gt;c_1</title>
<path fill="none" stroke="black" d="M168.12,-453.5C158.86,-443.83 146.53,-430.94 136.07,-420.02"/>
<polygon fill="black" stroke="black" points="138.31,-417.29 128.86,-412.49 133.25,-422.13 138.31,-417.29"/>
</g>
<!-- d_1 -->
<g id="node5" class="node">
<title>d_1</title>
<ellipse fill="none" stroke="black" cx="187" cy="-397" rx="27" ry="18"/>
<text text-anchor="middle" x="187" y="-393.3" font-family="sans" font-size="14.00">d</text>
</g>
<!-- b_1&#45;&gt;d_1 -->
<g id="edge3" class="edge">
<title>b_1&#45;&gt;d_1</title>
<path fill="none" stroke="black" d="M183.24,-450.7C183.79,-442.98 184.45,-433.71 185.06,-425.11"/>
<polygon fill="black" stroke="black" points="188.56,-425.33 185.78,-415.1 181.57,-424.83 188.56,-425.33"/>
</g>
<!-- b_2 -->
<g id="node10" class="node">
<title>b_2</title>
<ellipse fill="none" stroke="black" cx="363" cy="-322" rx="27" ry="18"/>
<text text-anchor="middle" x="363" y="-318.3" font-family="sans" font-size="14.00">b</text>
</g>
<!-- b_1&#45;&gt;b_2 -->
<g id="edge19" class="edge">
<title>b_1&#45;&gt;b_2</title>
<path fill="none" stroke="black" d="M198.7,-454.62C230.76,-428.94 301.04,-372.64 338.44,-342.67"/>
<polygon fill="black" stroke="black" points="340.72,-345.33 346.34,-336.35 336.34,-339.87 340.72,-345.33"/>
</g>
<!-- f_1 -->
<g id="node7" class="node">
<title>f_1</title>
<ellipse fill="none" stroke="black" cx="187" cy="-322" rx="27" ry="18"/>
<text text-anchor="middle" x="187" y="-318.3" font-family="sans" font-size="14.00">f</text>
</g>
<!-- d_1&#45;&gt;f_1 -->
<g id="edge4" class="edge">
<title>d_1&#45;&gt;f_1</title>
<path fill="none" stroke="black" d="M187,-378.7C187,-370.25 187,-359.87 187,-350.37"/>
<polygon fill="black" stroke="black" points="190.5,-350.18 187,-340.18 183.5,-350.18 190.5,-350.18"/>
</g>
<!-- e_1 -->
<g id="node6" class="node">
<title>e_1</title>
<ellipse fill="none" stroke="black" cx="43" cy="-397" rx="27" ry="18"/>
<text text-anchor="middle" x="43" y="-393.3" font-family="sans" font-size="14.00">e</text>
</g>
<!-- e_1&#45;&gt;f_1 -->
<g id="edge6" class="edge">
<title>e_1&#45;&gt;f_1</title>
<path fill="none" stroke="black" d="M63.94,-385.39C88.36,-373 128.93,-352.44 156.77,-338.33"/>
<polygon fill="black" stroke="black" points="158.7,-341.27 166.04,-333.63 155.53,-335.03 158.7,-341.27"/>
</g>
<!-- e_2 -->
<g id="node13" class="node">
<title>e_2</title>
<ellipse fill="none" stroke="black" cx="265" cy="-250" rx="27" ry="18"/>
<text text-anchor="middle" x="265" y="-246.3" font-family="sans" font-size="14.00">e</text>
</g>
<!-- f_1&#45;&gt;e_2 -->
<g id="edge21" class="edge">
<title>f_1&#45;&gt;e_2</title>
<path fill="none" stroke="black" d="M202.41,-307.17C213.73,-297.01 229.31,-283.03 242.09,-271.56"/>
<polygon fill="black" stroke="black" points="244.52,-274.09 249.62,-264.8 239.84,-268.88 244.52,-274.09"/>
</g>
<!-- clock_2 -->
<g id="node8" class="node">
<title>clock_2</title>
<text text-anchor="middle" x="363" y="-465.3" font-family="sans" font-size="14.00">@wall_clock</text>
</g>
<!-- a_2 -->
<g id="node9" class="node">
<title>a_2</title>
<ellipse fill="none" stroke="black" cx="363" cy="-397" rx="27" ry="18"/>
<text text-anchor="middle" x="363" y="-393.3" font-family="sans" font-size="14.00">a</text>
</g>
<!-- clock_2&#45;&gt;a_2 -->
<g id="edge7" class="edge">
<title>clock_2&#45;&gt;a_2</title>
<path fill="none" stroke="black" d="M363,-450.7C363,-442.98 363,-433.71 363,-425.11"/>
<polygon fill="black" stroke="black" points="366.5,-425.1 363,-415.1 359.5,-425.1 366.5,-425.1"/>
</g>
<!-- a_2&#45;&gt;b_2 -->
<g id="edge8" class="edge">
<title>a_2&#45;&gt;b_2</title>
<path fill="none" stroke="black" d="M363,-378.7C363,-370.25 363,-359.87 363,-350.37"/>
<polygon fill="black" stroke="black" points="366.5,-350.18 363,-340.18 359.5,-350.18 366.5,-350.18"/>
</g>
<!-- c_2 -->
<g id="node11" class="node">
<title>c_2</title>
<ellipse fill="none" stroke="black" cx="337" cy="-250" rx="27" ry="18"/>
<text text-anchor="middle" x="337" y="-246.3" font-family="sans" font-size="14.00">c</text>
</g>
<!-- b_2&#45;&gt;c_2 -->
<g id="edge11" class="edge">
<title>b_2&#45;&gt;c_2</title>
<path fill="none" stroke="black" d="M356.84,-304.41C353.84,-296.34 350.16,-286.43 346.79,-277.35"/>
<polygon fill="black" stroke="black" points="350.06,-276.11 343.3,-267.96 343.5,-278.55 350.06,-276.11"/>
</g>
<!-- d_2 -->
<g id="node12" class="node">
<title>d_2</title>
<ellipse fill="none" stroke="black" cx="409" cy="-250" rx="27" ry="18"/>
<text text-anchor="middle" x="409" y="-246.3" font-family="sans" font-size="14.00">d</text>
</g>
<!-- b_2&#45;&gt;d_2 -->
<g id="edge9" class="edge">
<title>b_2&#45;&gt;d_2</title>
<path fill="none" stroke="black" d="M373.44,-305.12C379.2,-296.34 386.48,-285.26 392.96,-275.42"/>
<polygon fill="black" stroke="black" points="396.04,-277.1 398.6,-266.82 390.19,-273.26 396.04,-277.1"/>
</g>
<!-- b_3 -->
<g id="node17" class="node">
<title>b_3</title>
<ellipse fill="none" stroke="black" cx="559" cy="-178" rx="27" ry="18"/>
<text text-anchor="middle" x="559" y="-174.3" font-family="sans" font-size="14.00">b</text>
</g>
<!-- b_2&#45;&gt;b_3 -->
<g id="edge20" class="edge">
<title>b_2&#45;&gt;b_3</title>
<path fill="none" stroke="black" d="M382.21,-309.26C399.03,-298.82 424.01,-282.94 445,-268 476.89,-245.31 512.2,-217.26 534.95,-198.79"/>
<polygon fill="black" stroke="black" points="537.2,-201.47 542.74,-192.44 532.77,-196.05 537.2,-201.47"/>
</g>
<!-- f_2 -->
<g id="node14" class="node">
<title>f_2</title>
<ellipse fill="none" stroke="black" cx="409" cy="-178" rx="27" ry="18"/>
<text text-anchor="middle" x="409" y="-174.3" font-family="sans" font-size="14.00">f</text>
</g>
<!-- d_2&#45;&gt;f_2 -->
<g id="edge10" class="edge">
<title>d_2&#45;&gt;f_2</title>
<path fill="none" stroke="black" d="M409,-231.7C409,-223.98 409,-214.71 409,-206.11"/>
<polygon fill="black" stroke="black" points="412.5,-206.1 409,-196.1 405.5,-206.1 412.5,-206.1"/>
</g>
<!-- e_2&#45;&gt;f_2 -->
<g id="edge12" class="edge">
<title>e_2&#45;&gt;f_2</title>
<path fill="none" stroke="black" d="M286.25,-238.67C310.6,-226.83 350.72,-207.33 378.43,-193.86"/>
<polygon fill="black" stroke="black" points="380.2,-196.89 387.67,-189.37 377.14,-190.6 380.2,-196.89"/>
</g>
<!-- e_3 -->
<g id="node20" class="node">
<title>e_3</title>
<ellipse fill="none" stroke="black" cx="487" cy="-106" rx="27" ry="18"/>
<text text-anchor="middle" x="487" y="-102.3" font-family="sans" font-size="14.00">e</text>
</g>
<!-- f_2&#45;&gt;e_3 -->
<g id="edge22" class="edge">
<title>f_2&#45;&gt;e_3</title>
<path fill="none" stroke="black" d="M424.41,-163.17C435.73,-153.01 451.31,-139.03 464.09,-127.56"/>
<polygon fill="black" stroke="black" points="466.52,-130.09 471.62,-120.8 461.84,-124.88 466.52,-130.09"/>
</g>
<!-- clock_3 -->
<g id="node15" class="node">
<title>clock_3</title>
<text text-anchor="middle" x="559" y="-318.3" font-family="sans" font-size="14.00">@wall_clock</text>
</g>
<!-- a_3 -->
<g id="node16" class="node">
<title>a_3</title>
<ellipse fill="none" stroke="black" cx="559" cy="-250" rx="27" ry="18"/>
<text text-anchor="middle" x="559" y="-246.3" font-family="sans" font-size="14.00">a</text>
</g>
<!-- clock_3&#45;&gt;a_3 -->
<g id="edge13" class="edge">
<title>clock_3&#45;&gt;a_3</title>
<path fill="none" stroke="black" d="M559,-303.7C559,-295.98 559,-286.71 559,-278.11"/>
<polygon fill="black" stroke="black" points="562.5,-278.1 559,-268.1 555.5,-278.1 562.5,-278.1"/>
</g>
<!-- a_3&#45;&gt;b_3 -->
<g id="edge14" class="edge">
<title>a_3&#45;&gt;b_3</title>
<path fill="none" stroke="black" d="M559,-231.7C559,-223.98 559,-214.71 559,-206.11"/>
<polygon fill="black" stroke="black" points="562.5,-206.1 559,-196.1 555.5,-206.1 562.5,-206.1"/>
</g>
<!-- c_3 -->
<g id="node18" class="node">
<title>c_3</title>
<ellipse fill="none" stroke="black" cx="559" cy="-106" rx="27" ry="18"/>
<text text-anchor="middle" x="559" y="-102.3" font-family="sans" font-size="14.00">c</text>
</g>
<!-- b_3&#45;&gt;c_3 -->
<g id="edge17" class="edge">
<title>b_3&#45;&gt;c_3</title>
<path fill="none" stroke="black" d="M559,-159.7C559,-151.98 559,-142.71 559,-134.11"/>
<polygon fill="black" stroke="black" points="562.5,-134.1 559,-124.1 555.5,-134.1 562.5,-134.1"/>
</g>
<!-- d_3 -->
<g id="node19" class="node">
<title>d_3</title>
<ellipse fill="none" stroke="black" cx="631" cy="-106" rx="27" ry="18"/>
<text text-anchor="middle" x="631" y="-102.3" font-family="sans" font-size="14.00">d</text>
</g>
<!-- b_3&#45;&gt;d_3 -->
<g id="edge15" class="edge">
<title>b_3&#45;&gt;d_3</title>
<path fill="none" stroke="black" d="M573.57,-162.83C583.75,-152.94 597.52,-139.55 609.03,-128.36"/>
<polygon fill="black" stroke="black" points="611.47,-130.87 616.2,-121.38 606.59,-125.85 611.47,-130.87"/>
</g>
<!-- f_3 -->
<g id="node21" class="node">
<title>f_3</title>
<ellipse fill="none" stroke="black" cx="559" cy="-34" rx="27" ry="18"/>
<text text-anchor="middle" x="559" y="-30.3" font-family="sans" font-size="14.00">f</text>
</g>
<!-- d_3&#45;&gt;f_3 -->
<g id="edge16" class="edge">
<title>d_3&#45;&gt;f_3</title>
<path fill="none" stroke="black" d="M616.43,-90.83C606.25,-80.94 592.48,-67.55 580.97,-56.36"/>
<polygon fill="black" stroke="black" points="583.41,-53.85 573.8,-49.38 578.53,-58.87 583.41,-53.85"/>
</g>
<!-- e_3&#45;&gt;f_3 -->
<g id="edge18" class="edge">
<title>e_3&#45;&gt;f_3</title>
<path fill="none" stroke="black" d="M501.57,-90.83C511.75,-80.94 525.52,-67.55 537.03,-56.36"/>
<polygon fill="black" stroke="black" points="539.47,-58.87 544.2,-49.38 534.59,-53.85 539.47,-58.87"/>
</g>
</g>
</svg>
