<?xml version="1.0" encoding="UTF-8" standalone="no"?>
<!DOCTYPE svg PUBLIC "-//W3C//DTD SVG 1.1//EN"
 "http://www.w3.org/Graphics/SVG/1.1/DTD/svg11.dtd">
<!-- Generated by graphviz version 6.0.1 (0)
 -->
<!-- Pages: 1 -->
<svg width="682pt" height="617pt"
 viewBox="0.00 0.00 682.00 617.00" xmlns="http://www.w3.org/2000/svg" xmlns:xlink="http://www.w3.org/1999/xlink">
<g id="graph0" class="graph" transform="scale(1 1) rotate(0) translate(4 613)">
<polygon fill="none" stroke="none" points="-4,4 -4,-613 678,-613 678,4 -4,4"/>
<g id="clust1" class="cluster">
<title>cluster_1</title>
<polygon fill="none" stroke="black" stroke-dasharray="5,2" points="8,-307 8,-601 222,-601 222,-307 8,-307"/>
<text text-anchor="middle" x="115" y="-585.8" font-family="sans" font-size="14.00">20230316T09</text>
</g>
<g id="clust2" class="cluster">
<title>cluster_2</title>
<polygon fill="none" stroke="black" stroke-dasharray="5,2" points="230,-152 230,-454 444,-454 444,-152 230,-152"/>
<text text-anchor="middle" x="337" y="-438.8" font-family="sans" font-size="14.00">20230317T09</text>
</g>
<g id="clust3" class="cluster">
<title>cluster_3</title>
<polygon fill="none" stroke="black" stroke-dasharray="5,2" points="452,-8 452,-299 666,-299 666,-8 452,-8"/>
<text text-anchor="middle" x="559" y="-283.8" font-family="sans" font-size="14.00">20230318T09</text>
</g>
<!-- a_1 -->
<g id="node1" class="node">
<title>a_1</title>
<ellipse fill="none" stroke="black" cx="187" cy="-552" rx="27" ry="18"/>
<text text-anchor="middle" x="187" y="-548.3" font-family="sans" font-size="14.00">a</text>
</g>
<!-- b_1 -->
<g id="node2" class="node">
<title>b_1</title>
<ellipse fill="none" stroke="black" cx="187" cy="-480" rx="27" ry="18"/>
<text text-anchor="middle" x="187" y="-476.3" font-family="sans" font-size="14.00">b</text>
</g>
<!-- a_1&#45;&gt;b_1 -->
<g id="edge1" class="edge">
<title>a_1&#45;&gt;b_1</title>
<path fill="none" stroke="black" d="M187,-533.7C187,-525.98 187,-516.71 187,-508.11"/>
<polygon fill="black" stroke="black" points="190.5,-508.1 187,-498.1 183.5,-508.1 190.5,-508.1"/>
</g>
<!-- c_1 -->
<g id="node3" class="node">
<title>c_1</title>
<ellipse fill="none" stroke="black" cx="115" cy="-405" rx="27" ry="18"/>
<text text-anchor="middle" x="115" y="-401.3" font-family="sans" font-size="14.00">c</text>
</g>
<!-- b_1&#45;&gt;c_1 -->
<g id="edge4" class="edge">
<title>b_1&#45;&gt;c_1</title>
<path fill="none" stroke="black" d="M167.44,-467.09C161.84,-463.25 155.93,-458.75 151,-454 143.73,-446.99 136.8,-438.41 131,-430.45"/>
<polygon fill="black" stroke="black" points="133.8,-428.33 125.19,-422.16 128.07,-432.35 133.8,-428.33"/>
</g>
<!-- d_1 -->
<g id="node4" class="node">
<title>d_1</title>
<ellipse fill="none" stroke="black" cx="187" cy="-405" rx="27" ry="18"/>
<text text-anchor="middle" x="187" y="-401.3" font-family="sans" font-size="14.00">d</text>
</g>
<!-- b_1&#45;&gt;d_1 -->
<g id="edge2" class="edge">
<title>b_1&#45;&gt;d_1</title>
<path fill="none" stroke="black" d="M187,-461.7C187,-453.25 187,-442.87 187,-433.37"/>
<polygon fill="black" stroke="black" points="190.5,-433.18 187,-423.18 183.5,-433.18 190.5,-433.18"/>
</g>
<!-- b_2 -->
<g id="node8" class="node">
<title>b_2</title>
<ellipse fill="none" stroke="black" cx="373" cy="-333" rx="27" ry="18"/>
<text text-anchor="middle" x="373" y="-329.3" font-family="sans" font-size="14.00">b</text>
</g>
<!-- b_1&#45;&gt;b_2 -->
<g id="edge16" class="edge">
<title>b_1&#45;&gt;b_2</title>
<path fill="none" stroke="black" d="M205.48,-466.52C211.16,-462.59 217.39,-458.19 223,-454 268.25,-420.24 319.25,-378.66 348.61,-354.36"/>
<polygon fill="black" stroke="black" points="351.18,-356.77 356.64,-347.69 346.71,-351.38 351.18,-356.77"/>
</g>
<!-- f_1 -->
<g id="node6" class="node">
<title>f_1</title>
<ellipse fill="none" stroke="black" cx="187" cy="-333" rx="27" ry="18"/>
<text text-anchor="middle" x="187" y="-329.3" font-family="sans" font-size="14.00">f</text>
</g>
<!-- d_1&#45;&gt;f_1 -->
<g id="edge3" class="edge">
<title>d_1&#45;&gt;f_1</title>
<path fill="none" stroke="black" d="M187,-386.7C187,-378.98 187,-369.71 187,-361.11"/>
<polygon fill="black" stroke="black" points="190.5,-361.1 187,-351.1 183.5,-361.1 190.5,-361.1"/>
</g>
<!-- e_1 -->
<g id="node5" class="node">
<title>e_1</title>
<ellipse fill="none" stroke="black" cx="43" cy="-405" rx="27" ry="18"/>
<text text-anchor="middle" x="43" y="-401.3" font-family="sans" font-size="14.00">e</text>
</g>
<!-- e_1&#45;&gt;f_1 -->
<g id="edge5" class="edge">
<title>e_1&#45;&gt;f_1</title>
<path fill="none" stroke="black" d="M64.25,-393.67C88.6,-381.83 128.72,-362.33 156.43,-348.86"/>
<polygon fill="black" stroke="black" points="158.2,-351.89 165.67,-344.37 155.14,-345.6 158.2,-351.89"/>
</g>
<!-- e_2 -->
<g id="node11" class="node">
<title>e_2</title>
<ellipse fill="none" stroke="black" cx="265" cy="-250" rx="27" ry="18"/>
<text text-anchor="middle" x="265" y="-246.3" font-family="sans" font-size="14.00">e</text>
</g>
<!-- f_1&#45;&gt;e_2 -->
<g id="edge18" class="edge">
<title>f_1&#45;&gt;e_2</title>
<path fill="none" stroke="black" d="M200.94,-317.52C212.85,-305.16 230.16,-287.18 243.78,-273.04"/>
<polygon fill="black" stroke="black" points="246.5,-275.26 250.91,-265.63 241.46,-270.4 246.5,-275.26"/>
</g>
<!-- a_2 -->
<g id="node7" class="node">
<title>a_2</title>
<ellipse fill="none" stroke="black" cx="373" cy="-405" rx="27" ry="18"/>
<text text-anchor="middle" x="373" y="-401.3" font-family="sans" font-size="14.00">a</text>
</g>
<!-- a_2&#45;&gt;b_2 -->
<g id="edge6" class="edge">
<title>a_2&#45;&gt;b_2</title>
<path fill="none" stroke="black" d="M373,-386.7C373,-378.98 373,-369.71 373,-361.11"/>
<polygon fill="black" stroke="black" points="376.5,-361.1 373,-351.1 369.5,-361.1 376.5,-361.1"/>
</g>
<!-- c_2 -->
<g id="node9" class="node">
<title>c_2</title>
<ellipse fill="none" stroke="black" cx="337" cy="-250" rx="27" ry="18"/>
<text text-anchor="middle" x="337" y="-246.3" font-family="sans" font-size="14.00">c</text>
</g>
<!-- b_2&#45;&gt;c_2 -->
<g id="edge9" class="edge">
<title>b_2&#45;&gt;c_2</title>
<path fill="none" stroke="black" d="M365.71,-315.61C360.74,-304.41 354.04,-289.34 348.37,-276.58"/>
<polygon fill="black" stroke="black" points="351.53,-275.08 344.27,-267.37 345.14,-277.93 351.53,-275.08"/>
</g>
<!-- d_2 -->
<g id="node10" class="node">
<title>d_2</title>
<ellipse fill="none" stroke="black" cx="409" cy="-250" rx="27" ry="18"/>
<text text-anchor="middle" x="409" y="-246.3" font-family="sans" font-size="14.00">d</text>
</g>
<!-- b_2&#45;&gt;d_2 -->
<g id="edge7" class="edge">
<title>b_2&#45;&gt;d_2</title>
<path fill="none" stroke="black" d="M380.29,-315.61C385.26,-304.41 391.96,-289.34 397.63,-276.58"/>
<polygon fill="black" stroke="black" points="400.86,-277.93 401.73,-267.37 394.47,-275.08 400.86,-277.93"/>
</g>
<!-- b_3 -->
<g id="node14" class="node">
<title>b_3</title>
<ellipse fill="none" stroke="black" cx="559" cy="-178" rx="27" ry="18"/>
<text text-anchor="middle" x="559" y="-174.3" font-family="sans" font-size="14.00">b</text>
</g>
<!-- b_2&#45;&gt;b_3 -->
<g id="edge17" class="edge">
<title>b_2&#45;&gt;b_3</title>
<path fill="none" stroke="black" d="M396.59,-323.83C411.27,-318.12 430.12,-309.63 445,-299 484.03,-271.11 520.63,-228.57 541.38,-202.34"/>
<polygon fill="black" stroke="black" points="544.15,-204.48 547.54,-194.44 538.63,-200.17 544.15,-204.48"/>
</g>
<!-- f_2 -->
<g id="node12" class="node">
<title>f_2</title>
<ellipse fill="none" stroke="black" cx="409" cy="-178" rx="27" ry="18"/>
<text text-anchor="middle" x="409" y="-174.3" font-family="sans" font-size="14.00">f</text>
</g>
<!-- d_2&#45;&gt;f_2 -->
<g id="edge8" class="edge">
<title>d_2&#45;&gt;f_2</title>
<path fill="none" stroke="black" d="M409,-231.7C409,-223.98 409,-214.71 409,-206.11"/>
<polygon fill="black" stroke="black" points="412.5,-206.1 409,-196.1 405.5,-206.1 412.5,-206.1"/>
</g>
<!-- e_2&#45;&gt;f_2 -->
<g id="edge10" class="edge">
<title>e_2&#45;&gt;f_2</title>
<path fill="none" stroke="black" d="M286.25,-238.67C310.6,-226.83 350.72,-207.33 378.43,-193.86"/>
<polygon fill="black" stroke="black" points="380.2,-196.89 387.67,-189.37 377.14,-190.6 380.2,-196.89"/>
</g>
<!-- e_3 -->
<g id="node17" class="node">
<title>e_3</title>
<ellipse fill="none" stroke="black" cx="487" cy="-106" rx="27" ry="18"/>
<text text-anchor="middle" x="487" y="-102.3" font-family="sans" font-size="14.00">e</text>
</g>
<!-- f_2&#45;&gt;e_3 -->
<g id="edge19" class="edge">
<title>f_2&#45;&gt;e_3</title>
<path fill="none" stroke="black" d="M424.41,-163.17C435.73,-153.01 451.31,-139.03 464.09,-127.56"/>
<polygon fill="black" stroke="black" points="466.52,-130.09 471.62,-120.8 461.84,-124.88 466.52,-130.09"/>
</g>
<!-- a_3 -->
<g id="node13" class="node">
<title>a_3</title>
<ellipse fill="none" stroke="black" cx="559" cy="-250" rx="27" ry="18"/>
<text text-anchor="middle" x="559" y="-246.3" font-family="sans" font-size="14.00">a</text>
</g>
<!-- a_3&#45;&gt;b_3 -->
<g id="edge11" class="edge">
<title>a_3&#45;&gt;b_3</title>
<path fill="none" stroke="black" d="M559,-231.7C559,-223.98 559,-214.71 559,-206.11"/>
<polygon fill="black" stroke="black" points="562.5,-206.1 559,-196.1 555.5,-206.1 562.5,-206.1"/>
</g>
<!-- c_3 -->
<g id="node15" class="node">
<title>c_3</title>
<ellipse fill="none" stroke="black" cx="559" cy="-106" rx="27" ry="18"/>
<text text-anchor="middle" x="559" y="-102.3" font-family="sans" font-size="14.00">c</text>
</g>
<!-- b_3&#45;&gt;c_3 -->
<g id="edge14" class="edge">
<title>b_3&#45;&gt;c_3</title>
<path fill="none" stroke="black" d="M559,-159.7C559,-151.98 559,-142.71 559,-134.11"/>
<polygon fill="black" stroke="black" points="562.5,-134.1 559,-124.1 555.5,-134.1 562.5,-134.1"/>
</g>
<!-- d_3 -->
<g id="node16" class="node">
<title>d_3</title>
<ellipse fill="none" stroke="black" cx="631" cy="-106" rx="27" ry="18"/>
<text text-anchor="middle" x="631" y="-102.3" font-family="sans" font-size="14.00">d</text>
</g>
<!-- b_3&#45;&gt;d_3 -->
<g id="edge12" class="edge">
<title>b_3&#45;&gt;d_3</title>
<path fill="none" stroke="black" d="M573.57,-162.83C583.75,-152.94 597.52,-139.55 609.03,-128.36"/>
<polygon fill="black" stroke="black" points="611.47,-130.87 616.2,-121.38 606.59,-125.85 611.47,-130.87"/>
</g>
<!-- f_3 -->
<g id="node18" class="node">
<title>f_3</title>
<ellipse fill="none" stroke="black" cx="559" cy="-34" rx="27" ry="18"/>
<text text-anchor="middle" x="559" y="-30.3" font-family="sans" font-size="14.00">f</text>
</g>
<!-- d_3&#45;&gt;f_3 -->
<g id="edge13" class="edge">
<title>d_3&#45;&gt;f_3</title>
<path fill="none" stroke="black" d="M616.43,-90.83C606.25,-80.94 592.48,-67.55 580.97,-56.36"/>
<polygon fill="black" stroke="black" points="583.41,-53.85 573.8,-49.38 578.53,-58.87 583.41,-53.85"/>
</g>
<!-- e_3&#45;&gt;f_3 -->
<g id="edge15" class="edge">
<title>e_3&#45;&gt;f_3</title>
<path fill="none" stroke="black" d="M501.57,-90.83C511.75,-80.94 525.52,-67.55 537.03,-56.36"/>
<polygon fill="black" stroke="black" points="539.47,-58.87 544.2,-49.38 534.59,-53.85 539.47,-58.87"/>
</g>
</g>
</svg>
