<?xml version="1.0"?><svg width="1545.2343" height="537.28125" xmlns="http://www.w3.org/2000/svg">
 <title>Curved Road</title>

 <metadata id="metadata7">image/svg+xml</metadata>
 <g>
  <title>Layer 1</title>
  <g id="layer1">
   <g id="g3874">
    <path fill="#333333" stroke="#000000" stroke-width="0.806897px" d="m750.865723,0.413818c-66.912964,9.068237 -243.640228,32.504272 -265.714264,66.968506c-16.228455,25.337524 239.812531,48.539673 114.285675,78.129944c-155.343597,36.619019 -364.512238,56.345947 -539.999969,113.474487c-277.611069,90.373901 507.357452,226.790771 625.714325,267.873962l859.999878,2.895386c-517.663574,-100.743164 -1329.039581,-204.578552 -1151.428497,-257.747681c178.261627,-53.363953 210.370636,-60.113342 374.285614,-113.474487c119.406799,-38.871826 -179.966003,-75.833435 -214.285645,-94.87207c-52.841339,-29.313477 160.33136,-53.109436 212.092041,-62.703186l-14.949158,-0.544861z" id="path3835"/>
    <path id="svg_1" fill="#ffffff" stroke="#ffffff" stroke-width="0.806897px" d="m756.926575,1.071533c-22.437805,2.983398 -44.851624,6.155212 -67.223206,9.610596c-27.333984,4.221863 -54.619385,8.814392 -81.729736,14.327393c-12.440002,2.529724 -24.846191,5.253662 -37.153381,8.393311c-0.000061,0 -0.000061,0 -0.000061,0c-10.046387,2.562561 -20.057495,5.358154 -29.813293,8.932617c0,0 -0.000061,0 -0.000061,0c-3.734924,1.368286 -7.438599,2.856995 -11.026978,4.612183c-2.728271,1.332458 -5.424377,2.816162 -7.859619,4.70459c-1.686279,1.292053 -3.328247,2.85022 -4.264771,4.898315c-0.361572,0.800354 -0.576416,1.684021 -0.573486,2.592163c0.01001,0.912781 0.24292,1.801697 0.635559,2.599976c0,0.000061 0,0.000061 0.000061,0.000061c0.394043,0.782898 0.970703,1.399841 1.55835,1.912476c0.831116,0.739502 1.739258,1.358215 2.655518,1.920837c2.662354,1.638123 5.501831,2.922241 8.339172,4.123169c3.909851,1.656982 7.889709,3.126709 11.884094,4.527771c0.000122,0 0.000122,0 0.000122,0c4.897217,1.718018 9.830139,3.324646 14.774963,4.881409c11.785095,3.710083 23.649719,7.147156 35.517395,10.548584c12.97583,3.719055 25.966614,7.374329 38.92804,11.117798c12.336304,3.562866 24.649841,7.188232 36.864502,11.10437c9.902283,3.175537 19.757385,6.46991 29.294495,10.492859c3.444763,1.453918 6.836914,2.989807 10.051636,4.804749c0,0 0,0 0,0c2.211853,1.261719 4.355103,2.553528 5.967163,4.284485c0.52124,0.569641 0.973694,1.135376 1.201172,1.730347c0.166382,0.439758 0.243713,0.899048 0.138123,1.259521c0,0 0,0 0,0.000061c-0.074951,0.422302 -0.406189,0.854614 -0.808289,1.27356c-0.593811,0.593506 -1.385437,1.05658 -2.242188,1.494751c-0.927185,0.466248 -1.946655,0.836487 -3.003357,1.222961c0,0 0,0 0,0c-1.678955,0.610168 -3.38501,1.170837 -5.103577,1.720581c-5.228149,1.671753 -10.508545,3.20459 -15.803711,4.716858c-16.680359,4.76355 -33.453857,9.217285 -50.24231,13.638428c-48.619385,12.803528 -97.374268,25.098633 -146.143707,37.353394c0,0 0,0 0,0c-50.737976,12.74939 -101.508301,25.375732 -152.272949,38.033875c-19.30835,4.814575 -38.618286,9.630249 -57.918274,14.493225c-11.614685,2.926392 -23.253418,5.825012 -34.854126,8.934875c-7.306213,1.95575 -14.594299,4.210815 -21.664673,7.155334c-0.000061,0.000061 -0.000061,0.000061 -0.000122,0.000061c-5.018555,2.078857 -10.032959,4.546387 -14.555542,7.934509c-1.690857,1.267395 -3.317963,2.706604 -4.770752,4.373047c0,0 -0.000031,0 -0.000031,0c-1.216125,1.390442 -2.292908,2.976746 -3.101532,4.758545c0,0.000061 -0.000031,0.000061 -0.000061,0.000122c-0.720032,1.597229 -1.172394,3.333069 -1.295013,5.127869c-0.111481,1.795471 0.106049,3.567688 0.588043,5.236267c1.185913,3.975281 3.504761,7.310852 6.073486,10.079224c3.490723,3.826416 7.515198,6.998352 11.625488,9.835571c5.369446,3.719238 11.010437,6.958801 16.722961,9.953918c7.032227,3.689575 14.223816,7.025208 21.475159,10.16272c0,0.000061 0,0.000061 0.000061,0.000061c18.235352,7.890503 36.915771,14.625244 55.689636,20.914673c0,0 0.000061,0 0.000061,0c23.157288,7.759521 46.539734,14.790466 70.005493,21.456116c0.000061,0 0.000061,0 0.000122,0.000061c56.206116,15.966125 112.951294,29.905762 169.827789,43.100647c62.323608,14.459106 124.870483,27.914307 187.51355,40.844604c59.467407,12.274841 119.032959,24.053528 178.647827,35.548645c47.714661,9.200439 95.462769,18.19165 143.199219,27.202637c0,0.000122 0.000122,0.000122 0.000122,0.000122c16.67334,3.147461 33.339233,6.291992 49.981934,9.514893c6.048584,1.171387 12.088989,2.352173 18.116089,3.565796c4.34082,0.874146 8.659546,1.756104 12.943604,2.699463l2.125122,-9.771606c-4.387817,-0.942749 -8.769287,-1.814941 -13.132813,-2.67041c-6.069702,-1.19043 -12.139893,-2.345337 -18.205688,-3.488281c-16.689453,-3.14502 -33.385864,-6.208496 -50.074341,-9.271973c-47.783813,-8.771362 -95.564209,-17.519958 -143.299316,-26.475525c-59.64447,-11.190063 -119.232056,-22.661865 -178.717224,-34.628845c-62.664063,-12.606567 -125.217346,-25.734009 -187.539978,-39.863159c-56.883392,-12.896545 -113.591766,-26.52356 -169.736725,-42.168823c0,0 -0.000061,0 -0.000061,0c-23.438965,-6.531616 -46.767883,-13.417847 -69.850403,-21.024109c-0.000061,-0.000061 -0.000061,-0.000061 -0.000122,-0.000061c-18.72229,-6.170837 -37.286682,-12.754822 -55.352173,-20.467651c-0.000061,-0.000061 -0.000061,-0.000061 -0.000122,-0.000061c-7.180725,-3.065918 -14.267639,-6.307983 -21.16333,-9.883606c-5.606873,-2.909424 -11.078857,-6.009399 -16.21936,-9.538208c-3.942261,-2.716187 -7.686523,-5.610413 -10.789856,-9.009155c-2.239441,-2.499939 -4.194702,-5.14624 -4.983856,-8.024658c-0.334625,-1.165161 -0.497162,-2.361145 -0.421753,-3.508728c0.064117,-1.144897 0.366425,-2.304016 0.846222,-3.396912c0.539673,-1.241028 1.347534,-2.419983 2.294739,-3.534546c0,-0.000061 0,-0.000061 0.000061,-0.000061c1.143066,-1.339417 2.50824,-2.546936 3.984192,-3.676453c3.982605,-3.049438 8.629944,-5.337158 13.446411,-7.387634c0,0 0.000061,0 0.000061,0c6.765747,-2.864685 13.840454,-5.086609 21.018738,-7.052917c11.529968,-3.153381 23.131714,-6.104614 34.739624,-9.091736c0.000061,0 0.000061,0 0.000122,0c19.268066,-4.95813 38.549988,-9.869995 57.833801,-14.781555c50.698608,-12.912964 101.40741,-25.795166 152.086182,-38.801025c0,0 0.000061,0 0.000061,0c48.709076,-12.500366 97.414215,-25.043884 145.987091,-38.096741c16.769592,-4.506348 33.538635,-9.0495 50.224609,-13.905396c5.294617,-1.540649 10.592041,-3.107727 15.852966,-4.818848c1.728516,-0.562073 3.461182,-1.141602 5.183289,-1.776917c1.059753,-0.388672 2.161072,-0.800537 3.247375,-1.347107c0.000122,0 0.000122,0 0.000122,0c0.972046,-0.48175 1.95874,-1.091003 2.82605,-1.931213c0.640381,-0.603943 1.182007,-1.418762 1.440552,-2.418335c0,0 0,0 0,-0.000061c0.201172,-0.946289 0.082031,-1.878906 -0.26123,-2.680725c-0.417725,-0.976074 -1.028198,-1.77771 -1.675659,-2.44043c-1.928345,-2.002625 -4.258667,-3.423218 -6.53479,-4.677795c0,-0.000061 0,-0.000061 -0.000122,-0.000061c-3.342163,-1.861511 -6.818787,-3.41748 -10.307922,-4.866821c-9.662781,-4.016296 -19.592468,-7.282166 -29.527405,-10.411316c-12.265869,-3.864319 -24.615112,-7.432983 -36.975342,-10.935364c0,0 0,0 0,0c-12.988525,-3.680542 -25.998291,-7.270691 -38.987427,-10.922974c-11.88147,-3.340881 -23.749634,-6.714233 -35.531494,-10.358459c-4.943237,-1.528992 -9.869141,-3.105957 -14.755005,-4.792419c-3.986816,-1.376404 -7.946594,-2.815613 -11.825684,-4.437073c-2.822754,-1.18158 -5.608765,-2.420898 -8.182983,-3.991089c-0.884521,-0.54071 -1.73468,-1.109741 -2.482544,-1.772888c-0.526611,-0.477051 -1.006897,-0.960754 -1.27002,-1.515381c-0.318176,-0.647888 -0.512512,-1.354004 -0.517822,-2.052612c-0.012207,-0.697021 0.162476,-1.408447 0.453918,-2.074524c0.759827,-1.762451 2.272949,-3.174011 3.874573,-4.448669c2.322083,-1.825439 4.942627,-3.279968 7.629028,-4.613464c3.52832,-1.748718 7.188843,-3.240662 10.895142,-4.620483c0,-0.000061 0,-0.000061 0.000122,-0.000061c9.682617,-3.604187 19.647827,-6.440247 29.667114,-9.050537c12.270508,-3.196289 24.649719,-5.979553 37.069214,-8.570313c27.06543,-5.645874 54.32019,-10.37439 81.629639,-14.733276c22.350952,-3.567383 44.74762,-6.851807 67.170227,-9.947998z"/>
   </g>
  </g>
 </g>
</svg>